G04*
G04 #@! TF.GenerationSoftware,Altium Limited,Altium Designer,20.0.13 (296)*
G04*
G04 Layer_Color=8388736*
%FSLAX25Y25*%
%MOIN*%
G70*
G01*
G75*
%ADD29R,0.02762X0.06400*%
%ADD30R,0.01581X0.06400*%
%ADD31O,0.08674X0.02965*%
%ADD32R,0.03800X0.03800*%
%ADD33P,0.04113X8X112.5*%
%ADD34R,0.04300X0.04300*%
%ADD35R,0.05524X0.05918*%
%ADD36O,0.07887X0.03950*%
%ADD37R,0.07887X0.03950*%
%ADD38R,0.03800X0.03800*%
%ADD39O,0.03950X0.07887*%
%ADD40R,0.03950X0.07887*%
%ADD41O,0.18517X0.12611*%
%ADD42R,0.07887X0.07887*%
%ADD43C,0.07887*%
%ADD44O,0.05124X0.08274*%
%ADD45O,0.05124X0.10243*%
%ADD46O,0.09461X0.07099*%
%ADD47O,0.15800X0.06800*%
%ADD48C,0.05131*%
D29*
X358961Y424106D02*
D03*
X355811D02*
D03*
X334040D02*
D03*
X337189D02*
D03*
D30*
X339611D02*
D03*
X341579D02*
D03*
X343548D02*
D03*
X345516D02*
D03*
X347485D02*
D03*
X349453D02*
D03*
X351422D02*
D03*
X353390D02*
D03*
D31*
X351900Y376709D02*
D03*
Y371709D02*
D03*
Y366709D02*
D03*
Y361709D02*
D03*
Y356709D02*
D03*
Y351709D02*
D03*
Y346709D02*
D03*
Y341709D02*
D03*
X373000Y376709D02*
D03*
Y371709D02*
D03*
Y366709D02*
D03*
Y361709D02*
D03*
Y356709D02*
D03*
Y351709D02*
D03*
Y346709D02*
D03*
Y341709D02*
D03*
D32*
X298500Y374941D02*
D03*
X337500Y332941D02*
D03*
Y339059D02*
D03*
Y354059D02*
D03*
Y347941D02*
D03*
X306000Y374941D02*
D03*
Y381059D02*
D03*
X314500Y292559D02*
D03*
Y286441D02*
D03*
D33*
X298500Y381059D02*
D03*
D34*
X421500Y353000D02*
D03*
X414500D02*
D03*
X422000Y261500D02*
D03*
X415000D02*
D03*
X422500Y169000D02*
D03*
X415500D02*
D03*
X422500Y75000D02*
D03*
X415500D02*
D03*
D35*
X321654Y347134D02*
D03*
Y338866D02*
D03*
X328346D02*
D03*
Y347134D02*
D03*
D36*
X463933Y80000D02*
D03*
X464433Y168500D02*
D03*
Y261167D02*
D03*
Y352500D02*
D03*
D37*
X443067Y80000D02*
D03*
X443567Y168500D02*
D03*
Y261167D02*
D03*
Y352500D02*
D03*
D38*
X421559Y83500D02*
D03*
X415441D02*
D03*
X323941Y361000D02*
D03*
X330059D02*
D03*
X323941Y369000D02*
D03*
X330059D02*
D03*
X421559Y177000D02*
D03*
X415441D02*
D03*
X330059Y377000D02*
D03*
X323941D02*
D03*
X329941Y416000D02*
D03*
X336059D02*
D03*
X414941Y269000D02*
D03*
X421059D02*
D03*
X420559Y360500D02*
D03*
X414441D02*
D03*
D39*
X385000Y447933D02*
D03*
D40*
Y427067D02*
D03*
D41*
X426669Y146803D02*
D03*
Y95071D02*
D03*
Y239767D02*
D03*
Y188035D02*
D03*
Y332731D02*
D03*
Y280998D02*
D03*
Y425695D02*
D03*
Y373962D02*
D03*
D42*
X416000Y107158D02*
D03*
Y200121D02*
D03*
Y293085D02*
D03*
Y386049D02*
D03*
D43*
Y117000D02*
D03*
X416000Y134716D02*
D03*
X416000Y124874D02*
D03*
Y209964D02*
D03*
X416000Y227680D02*
D03*
X416000Y217838D02*
D03*
Y302928D02*
D03*
X416000Y320644D02*
D03*
X416000Y310802D02*
D03*
Y395891D02*
D03*
X416000Y413608D02*
D03*
X416000Y403765D02*
D03*
D44*
X329492Y444893D02*
D03*
X363508D02*
D03*
D45*
X329492Y428437D02*
D03*
X363508Y428437D02*
D03*
D46*
X304874Y324052D02*
D03*
Y313989D02*
D03*
Y306115D02*
D03*
Y296052D02*
D03*
D47*
X297000Y333228D02*
D03*
Y286772D02*
D03*
D48*
Y318858D02*
D03*
Y301142D02*
D03*
M02*
