G04*
G04 #@! TF.GenerationSoftware,Altium Limited,Altium Designer,20.0.13 (296)*
G04*
G04 Layer_Physical_Order=2*
G04 Layer_Color=16711680*
%FSLAX25Y25*%
%MOIN*%
G70*
G01*
G75*
%ADD14C,0.01000*%
%ADD52O,0.17717X0.11811*%
%ADD53R,0.07087X0.07087*%
%ADD54C,0.07087*%
%ADD55O,0.04724X0.07874*%
%ADD56O,0.04724X0.09843*%
%ADD57O,0.08661X0.06299*%
%ADD58O,0.15000X0.06000*%
%ADD59C,0.04331*%
%ADD60C,0.02400*%
%ADD61C,0.01600*%
G36*
X304000Y453479D02*
X305531D01*
X305654Y453503D01*
X305777Y453479D01*
X452815Y453479D01*
X452994Y453479D01*
X453310Y453481D01*
X453793Y453452D01*
X455462Y453343D01*
X457617Y452914D01*
X459697Y452208D01*
X461668Y451236D01*
X463495Y450015D01*
X465147Y448566D01*
X466596Y446914D01*
X467816Y445087D01*
X468788Y443117D01*
X469494Y441036D01*
X469923Y438881D01*
X470054Y436879D01*
X469979Y436500D01*
Y434977D01*
X470005Y434848D01*
X469979Y434720D01*
Y402500D01*
X469979Y95000D01*
X469969D01*
X470086Y94414D01*
X470195Y94250D01*
X470086Y94086D01*
X469969Y93500D01*
X469979D01*
Y81990D01*
X469970Y81981D01*
X469970Y81981D01*
X469970Y81981D01*
X469843Y80038D01*
X469414Y77883D01*
X468708Y75803D01*
X467736Y73832D01*
X466515Y72005D01*
X465066Y70353D01*
X463414Y68904D01*
X461587Y67684D01*
X459617Y66712D01*
X457536Y66005D01*
X455381Y65577D01*
X454162Y65497D01*
X454162Y65497D01*
Y65497D01*
X454000Y65521D01*
X453681Y65521D01*
X451477D01*
X451349Y65496D01*
X451220Y65521D01*
X303998D01*
X303498Y65529D01*
X303498Y65529D01*
X303498Y65529D01*
X301538Y65657D01*
X299383Y66086D01*
X297303Y66792D01*
X295332Y67764D01*
X293505Y68985D01*
X291853Y70433D01*
X290404Y72085D01*
X289184Y73913D01*
X288212Y75883D01*
X287506Y77964D01*
X287077Y80119D01*
X286970Y81745D01*
X287021Y82000D01*
Y84023D01*
X286996Y84151D01*
X287021Y84280D01*
Y436272D01*
X287033Y436526D01*
X287033Y436526D01*
X287016Y436772D01*
X287160Y438964D01*
X287589Y441119D01*
X288295Y443199D01*
X289266Y445170D01*
X290487Y446997D01*
X291936Y448648D01*
X293587Y450097D01*
X295414Y451318D01*
X297385Y452289D01*
X299465Y452995D01*
X301620Y453424D01*
X303618Y453555D01*
X304000Y453479D01*
D02*
G37*
%LPC*%
G36*
X358113Y432236D02*
X357643D01*
X357524Y432186D01*
X357395D01*
X356960Y432007D01*
X356869Y431915D01*
X356750Y431866D01*
X356417Y431534D01*
X356368Y431414D01*
X356277Y431323D01*
X356097Y430889D01*
Y430760D01*
X356048Y430640D01*
Y430170D01*
X356097Y430051D01*
Y429922D01*
X356277Y429488D01*
X356368Y429396D01*
X356417Y429277D01*
X356750Y428945D01*
X356869Y428895D01*
X356960Y428804D01*
X357395Y428624D01*
X357524D01*
X357643Y428575D01*
X358113D01*
X358232Y428624D01*
X358362D01*
X358796Y428804D01*
X358887Y428895D01*
X359006Y428945D01*
X359338Y429277D01*
X359388Y429396D01*
X359479Y429488D01*
X359659Y429922D01*
Y430051D01*
X359708Y430170D01*
Y430640D01*
X359659Y430760D01*
Y430889D01*
X359479Y431323D01*
X359388Y431414D01*
X359338Y431534D01*
X359006Y431866D01*
X358887Y431915D01*
X358796Y432007D01*
X358362Y432186D01*
X358232D01*
X358113Y432236D01*
D02*
G37*
G36*
X335357D02*
X334887D01*
X334768Y432186D01*
X334639D01*
X334204Y432007D01*
X334113Y431915D01*
X333994Y431866D01*
X333662Y431534D01*
X333612Y431414D01*
X333521Y431323D01*
X333341Y430889D01*
Y430760D01*
X333292Y430640D01*
Y430170D01*
X333341Y430051D01*
Y429922D01*
X333521Y429488D01*
X333612Y429396D01*
X333662Y429277D01*
X333994Y428945D01*
X334113Y428895D01*
X334204Y428804D01*
X334639Y428624D01*
X334768D01*
X334887Y428575D01*
X335357D01*
X335476Y428624D01*
X335606D01*
X336040Y428804D01*
X336131Y428895D01*
X336250Y428945D01*
X336582Y429277D01*
X336632Y429396D01*
X336723Y429488D01*
X336903Y429922D01*
Y430051D01*
X336952Y430170D01*
Y430640D01*
X336903Y430760D01*
Y430889D01*
X336723Y431323D01*
X336632Y431414D01*
X336582Y431534D01*
X336250Y431866D01*
X336131Y431915D01*
X336040Y432007D01*
X335606Y432186D01*
X335476D01*
X335357Y432236D01*
D02*
G37*
G36*
X347524Y431403D02*
X346978Y431295D01*
X346682Y431098D01*
X344365D01*
X344070Y431295D01*
X343524Y431403D01*
X342978Y431295D01*
X342515Y430985D01*
X342205Y430522D01*
X342096Y429976D01*
X342205Y429430D01*
X342515Y428967D01*
X342978Y428657D01*
X343524Y428549D01*
X344070Y428657D01*
X344365Y428854D01*
X346683D01*
X346978Y428657D01*
X347524Y428549D01*
X348070Y428657D01*
X348533Y428967D01*
X348843Y429430D01*
X348951Y429976D01*
X348843Y430522D01*
X348533Y430985D01*
X348070Y431295D01*
X347524Y431403D01*
D02*
G37*
G36*
X416000Y407944D02*
X414918Y407802D01*
X413910Y407384D01*
X413045Y406720D01*
X412381Y405855D01*
X411963Y404847D01*
X411821Y403765D01*
X411963Y402684D01*
X412381Y401676D01*
X413045Y400810D01*
X413910Y400146D01*
X414074Y400078D01*
Y399578D01*
X413910Y399511D01*
X413045Y398846D01*
X412381Y397981D01*
X411963Y396973D01*
X411821Y395891D01*
X411963Y394810D01*
X412381Y393802D01*
X413045Y392936D01*
X413910Y392272D01*
X414918Y391855D01*
X416000Y391712D01*
X417082Y391855D01*
X418089Y392272D01*
X418955Y392936D01*
X419619Y393802D01*
X420037Y394810D01*
X420179Y395891D01*
X420037Y396973D01*
X419619Y397981D01*
X418955Y398846D01*
X418089Y399511D01*
X417926Y399578D01*
Y400078D01*
X418089Y400146D01*
X418955Y400810D01*
X419619Y401676D01*
X420037Y402684D01*
X420179Y403765D01*
X420037Y404847D01*
X419619Y405855D01*
X418955Y406720D01*
X418089Y407384D01*
X417082Y407802D01*
X416000Y407944D01*
D02*
G37*
G36*
X420143Y390192D02*
X411857D01*
Y381906D01*
X420143D01*
Y390192D01*
D02*
G37*
G36*
X297000Y321648D02*
X296278Y321552D01*
X295605Y321274D01*
X295028Y320830D01*
X294584Y320253D01*
X294306Y319580D01*
X294211Y318858D01*
X294306Y318136D01*
X294584Y317464D01*
X295028Y316886D01*
X295605Y316443D01*
X296278Y316164D01*
X297000Y316069D01*
X297722Y316164D01*
X298395Y316443D01*
X298972Y316886D01*
X299415Y317464D01*
X299694Y318136D01*
X299789Y318858D01*
X299694Y319580D01*
X299415Y320253D01*
X298972Y320830D01*
X298395Y321274D01*
X297722Y321552D01*
X297000Y321648D01*
D02*
G37*
G36*
X306055Y317771D02*
X303693D01*
X302714Y317642D01*
X301802Y317264D01*
X301019Y316663D01*
X300418Y315880D01*
X300040Y314968D01*
X299911Y313989D01*
X300040Y313010D01*
X300418Y312098D01*
X301019Y311315D01*
X301802Y310714D01*
X302714Y310336D01*
X302955Y310304D01*
Y309800D01*
X302714Y309768D01*
X301802Y309390D01*
X301019Y308789D01*
X300418Y308006D01*
X300040Y307094D01*
X299911Y306115D01*
X300040Y305136D01*
X300418Y304224D01*
X301019Y303441D01*
X301802Y302840D01*
X302714Y302462D01*
X303693Y302333D01*
X306055D01*
X307034Y302462D01*
X307946Y302840D01*
X308729Y303441D01*
X309330Y304224D01*
X309708Y305136D01*
X309837Y306115D01*
X309708Y307094D01*
X309330Y308006D01*
X308729Y308789D01*
X307946Y309390D01*
X307034Y309768D01*
X306793Y309800D01*
Y310304D01*
X307034Y310336D01*
X307946Y310714D01*
X308729Y311315D01*
X309330Y312098D01*
X309708Y313010D01*
X309837Y313989D01*
X309708Y314968D01*
X309330Y315880D01*
X308729Y316663D01*
X307946Y317264D01*
X307034Y317642D01*
X306055Y317771D01*
D02*
G37*
G36*
X416000Y314981D02*
X414918Y314838D01*
X413910Y314421D01*
X413045Y313757D01*
X412381Y312891D01*
X411963Y311883D01*
X411821Y310802D01*
X411963Y309720D01*
X412381Y308712D01*
X413045Y307846D01*
X413910Y307182D01*
X414074Y307115D01*
Y306615D01*
X413910Y306547D01*
X413045Y305883D01*
X412381Y305017D01*
X411963Y304009D01*
X411821Y302928D01*
X411963Y301846D01*
X412381Y300838D01*
X413045Y299973D01*
X413910Y299308D01*
X414918Y298891D01*
X416000Y298748D01*
X417082Y298891D01*
X418089Y299308D01*
X418955Y299973D01*
X419619Y300838D01*
X420037Y301846D01*
X420179Y302928D01*
X420037Y304009D01*
X419619Y305017D01*
X418955Y305883D01*
X418089Y306547D01*
X417926Y306615D01*
Y307115D01*
X418089Y307182D01*
X418955Y307846D01*
X419619Y308712D01*
X420037Y309720D01*
X420179Y310802D01*
X420037Y311883D01*
X419619Y312891D01*
X418955Y313757D01*
X418089Y314421D01*
X417082Y314838D01*
X416000Y314981D01*
D02*
G37*
G36*
X297000Y303931D02*
X296278Y303836D01*
X295605Y303557D01*
X295028Y303114D01*
X294584Y302536D01*
X294306Y301864D01*
X294211Y301142D01*
X294306Y300420D01*
X294584Y299747D01*
X295028Y299169D01*
X295605Y298726D01*
X296278Y298448D01*
X297000Y298353D01*
X297722Y298448D01*
X298395Y298726D01*
X298972Y299169D01*
X299415Y299747D01*
X299694Y300420D01*
X299789Y301142D01*
X299694Y301864D01*
X299415Y302536D01*
X298972Y303114D01*
X298395Y303557D01*
X297722Y303836D01*
X297000Y303931D01*
D02*
G37*
G36*
X306055Y299834D02*
X303693D01*
X302714Y299705D01*
X301802Y299327D01*
X301019Y298726D01*
X300418Y297943D01*
X300040Y297031D01*
X299911Y296052D01*
X300040Y295073D01*
X300418Y294161D01*
X301019Y293378D01*
X301802Y292777D01*
X302714Y292399D01*
X303693Y292270D01*
X306055D01*
X307034Y292399D01*
X307946Y292777D01*
X308729Y293378D01*
X309330Y294161D01*
X309708Y295073D01*
X309837Y296052D01*
X309708Y297031D01*
X309330Y297943D01*
X308729Y298726D01*
X307946Y299327D01*
X307034Y299705D01*
X306055Y299834D01*
D02*
G37*
G36*
X420143Y297228D02*
X411857D01*
Y288942D01*
X420143D01*
Y297228D01*
D02*
G37*
G36*
X416000Y222017D02*
X414918Y221874D01*
X413910Y221457D01*
X413045Y220793D01*
X412381Y219927D01*
X411963Y218919D01*
X411821Y217838D01*
X411963Y216756D01*
X412381Y215748D01*
X413045Y214883D01*
X413910Y214219D01*
X414074Y214151D01*
Y213651D01*
X413910Y213583D01*
X413045Y212919D01*
X412381Y212053D01*
X411963Y211045D01*
X411821Y209964D01*
X411963Y208882D01*
X412381Y207874D01*
X413045Y207009D01*
X413910Y206345D01*
X414918Y205927D01*
X416000Y205785D01*
X417082Y205927D01*
X418089Y206345D01*
X418955Y207009D01*
X419619Y207874D01*
X420037Y208882D01*
X420179Y209964D01*
X420037Y211045D01*
X419619Y212053D01*
X418955Y212919D01*
X418089Y213583D01*
X417926Y213651D01*
Y214151D01*
X418089Y214219D01*
X418955Y214883D01*
X419619Y215748D01*
X420037Y216756D01*
X420179Y217838D01*
X420037Y218919D01*
X419619Y219927D01*
X418955Y220793D01*
X418089Y221457D01*
X417082Y221874D01*
X416000Y222017D01*
D02*
G37*
G36*
X420143Y204265D02*
X411857D01*
Y195978D01*
X420143D01*
Y204265D01*
D02*
G37*
G36*
X416000Y129053D02*
X414918Y128911D01*
X413910Y128493D01*
X413045Y127829D01*
X412381Y126963D01*
X411963Y125956D01*
X411821Y124874D01*
X411963Y123792D01*
X412381Y122784D01*
X413045Y121919D01*
X413910Y121255D01*
X414074Y121187D01*
Y120687D01*
X413910Y120619D01*
X413045Y119955D01*
X412381Y119089D01*
X411963Y118082D01*
X411821Y117000D01*
X411963Y115918D01*
X412381Y114910D01*
X413045Y114045D01*
X413910Y113381D01*
X414918Y112963D01*
X416000Y112821D01*
X417082Y112963D01*
X418089Y113381D01*
X418955Y114045D01*
X419619Y114910D01*
X420037Y115918D01*
X420179Y117000D01*
X420037Y118082D01*
X419619Y119089D01*
X418955Y119955D01*
X418089Y120619D01*
X417926Y120687D01*
Y121187D01*
X418089Y121255D01*
X418955Y121919D01*
X419619Y122784D01*
X420037Y123792D01*
X420179Y124874D01*
X420037Y125956D01*
X419619Y126963D01*
X418955Y127829D01*
X418089Y128493D01*
X417082Y128911D01*
X416000Y129053D01*
D02*
G37*
G36*
X420143Y111301D02*
X411857D01*
Y103014D01*
X420143D01*
Y111301D01*
D02*
G37*
%LPD*%
G36*
X346953Y429416D02*
X346937Y429427D01*
X346913Y429438D01*
X346880Y429447D01*
X346839Y429454D01*
X346790Y429461D01*
X346667Y429471D01*
X346419Y429476D01*
X346419Y430476D01*
X346510Y430477D01*
X346839Y430498D01*
X346880Y430505D01*
X346912Y430514D01*
X346937Y430525D01*
X346953Y430536D01*
X346953Y429416D01*
D02*
G37*
G36*
X344111Y430525D02*
X344135Y430514D01*
X344168Y430505D01*
X344209Y430498D01*
X344258Y430491D01*
X344381Y430481D01*
X344628Y430476D01*
X344628Y429476D01*
X344538Y429475D01*
X344209Y429454D01*
X344168Y429447D01*
X344135Y429438D01*
X344111Y429427D01*
X344095Y429416D01*
X344095Y430536D01*
X344111Y430525D01*
D02*
G37*
D14*
X451330Y64012D02*
G03*
X471500Y82500I1859J18219D01*
G01*
X285512Y84170D02*
G03*
X304000Y64000I18219J-1859D01*
G01*
X471488Y434830D02*
G03*
X453000Y455000I-18219J1859D01*
G01*
X305670Y454989D02*
G03*
X285503Y436503I-1859J-18216D01*
G01*
X343524Y429976D02*
X343524D01*
X343524Y429976D01*
X304000Y455000D02*
X453269Y455000D01*
X303500Y64000D02*
X366875D01*
X436625D01*
X285500Y105000D02*
Y432500D01*
Y82000D02*
Y105000D01*
X436625Y64000D02*
X454000D01*
X285500Y432500D02*
Y436272D01*
X471500Y402500D02*
X471500Y95000D01*
X471500Y402500D02*
Y436500D01*
X471500Y81500D02*
Y93500D01*
X347476Y429976D02*
X347500Y430000D01*
X343524Y429976D02*
X347476D01*
D52*
X426669Y146803D02*
D03*
Y95071D02*
D03*
Y239767D02*
D03*
Y188035D02*
D03*
Y332731D02*
D03*
Y280998D02*
D03*
Y425695D02*
D03*
Y373962D02*
D03*
D53*
X416000Y107158D02*
D03*
Y200121D02*
D03*
Y293085D02*
D03*
Y386049D02*
D03*
D54*
Y117000D02*
D03*
X416000Y134716D02*
D03*
X416000Y124874D02*
D03*
Y209964D02*
D03*
X416000Y227680D02*
D03*
X416000Y217838D02*
D03*
Y302928D02*
D03*
X416000Y320644D02*
D03*
X416000Y310802D02*
D03*
Y395891D02*
D03*
X416000Y413608D02*
D03*
X416000Y403765D02*
D03*
D55*
X329492Y444893D02*
D03*
X363508D02*
D03*
D56*
X329492Y428437D02*
D03*
X363508Y428437D02*
D03*
D57*
X304874Y324052D02*
D03*
Y313989D02*
D03*
Y306115D02*
D03*
Y296052D02*
D03*
D58*
X297000Y333228D02*
D03*
Y286772D02*
D03*
D59*
Y318858D02*
D03*
Y301142D02*
D03*
D60*
X466000Y102500D02*
D03*
X461000D02*
D03*
X466000Y98000D02*
D03*
X461000D02*
D03*
X465500Y194500D02*
D03*
X461000D02*
D03*
X465500Y190000D02*
D03*
X461000D02*
D03*
X465500Y280000D02*
D03*
X461000Y279500D02*
D03*
X465500Y275000D02*
D03*
X461000D02*
D03*
X465500Y373500D02*
D03*
X461500D02*
D03*
X465500Y369500D02*
D03*
X461500D02*
D03*
X417500Y445500D02*
D03*
D03*
X411500D02*
D03*
X418000Y450500D02*
D03*
X411500D02*
D03*
X324500Y416000D02*
D03*
X316500Y306000D02*
D03*
X312500D02*
D03*
X316500Y314000D02*
D03*
X313000D02*
D03*
X409000Y395000D02*
D03*
X406000Y393000D02*
D03*
X314500Y282000D02*
D03*
X321654Y338866D02*
D03*
X328346Y347134D02*
D03*
X319608Y361000D02*
D03*
X344895Y362605D02*
D03*
X311750Y392000D02*
D03*
X359500Y367500D02*
D03*
X359000Y371000D02*
D03*
X363000Y377500D02*
D03*
X359500D02*
D03*
X341191Y369809D02*
D03*
X345000D02*
D03*
X343500Y413500D02*
D03*
Y417500D02*
D03*
X351750Y381500D02*
D03*
X355500D02*
D03*
X353000Y413500D02*
D03*
Y417500D02*
D03*
X404500Y406000D02*
D03*
X409000D02*
D03*
X374500Y382500D02*
D03*
X371000D02*
D03*
X405000Y223500D02*
D03*
X389500Y376500D02*
D03*
X387000Y374104D02*
D03*
X409000Y318500D02*
D03*
Y315000D02*
D03*
X386007Y369504D02*
D03*
X381000Y369500D02*
D03*
X385500Y359000D02*
D03*
X381000D02*
D03*
X408500Y220500D02*
D03*
X378500Y331500D02*
D03*
Y335345D02*
D03*
X384500Y349000D02*
D03*
X381500D02*
D03*
X406500Y127500D02*
D03*
X409000D02*
D03*
X405000Y115500D02*
D03*
X402500D02*
D03*
X331500Y332500D02*
D03*
X327530D02*
D03*
X323500D02*
D03*
X319500D02*
D03*
X316250Y334250D02*
D03*
X314500Y338500D02*
D03*
Y343250D02*
D03*
Y348000D02*
D03*
X316280Y352279D02*
D03*
X319500Y354000D02*
D03*
X324000D02*
D03*
X327780Y354059D02*
D03*
X331500Y354000D02*
D03*
D61*
X343524Y429976D02*
D03*
X347524D02*
D03*
M02*
