M48
;Layer_Color=9474304
;FILE_FORMAT=2:5
INCH,LZ
;TYPE=PLATED
T1F00S00C0.00800
T2F00S00C0.01200
T5F00S00C0.03543
T6F00S00C0.03937
T7F00S00C0.04331
T8F00S00C0.09055
%
T01
X0343524Y0429976
X0347524
T02
X04025Y01155
X0405
X04065Y01275
X0409
X0461Y01025
Y0098
X0466
Y01025
X04655Y019
Y01945
X0461
Y019
X04085Y02205
X0405Y02235
X0461Y0275
Y02795
X04655Y028
Y0275
X03145Y0282
X03165Y0306
X03125
X031175Y0392
X03245Y0416
X03435Y04175
Y04135
X0353
Y04175
X035175Y03815
X03555
X03595Y03775
X0363
X0359Y0371
X03595Y03675
X0345Y0369809
X0341191
X0344895Y0362605
X03315Y0354
X032778Y0354059
X0324Y0354
X03195
X031628Y0352279
X03145Y0348
Y034325
Y03385
X031625Y033425
X03195Y03325
X03235
X032753
X03315
X0321654Y0338866
X0328346Y0347134
X0319608Y0361
X03165Y0314
X0313
X03785Y03315
Y0335345
X03815Y0349
X03845
X03855Y0359
X0381
Y03695
X0386007Y0369504
X0387Y0374104
X03895Y03765
X03745Y03825
X0371
X0406Y0393
X0409Y0395
Y0406
X04045
X04115Y04455
Y04505
X0418
X04175Y04455
X04615Y03735
X04655
Y03695
X04615
X0409Y03185
Y0315
T05
X0304874Y0296052
Y0306115
Y0313989
Y0324052
T06
X0416Y0107158
Y0117
Y0124874
X0416Y0134716
X0416Y0200121
Y0209964
Y0217838
X0416Y022768
X0416Y0293085
Y0302928
Y0310802
X0416Y0320644
X0416Y0386049
Y0395891
Y0403765
X0416Y0413608
T07
X0297Y0301142
Y0318858
T08
X0426669Y0095071
Y0146803
Y0188035
Y0239767
Y0280998
Y0332731
Y0373962
Y0425695
M30
