G04*
G04 #@! TF.GenerationSoftware,Altium Limited,Altium Designer,20.0.13 (296)*
G04*
G04 Layer_Color=8421504*
%FSLAX25Y25*%
%MOIN*%
G70*
G01*
G75*
%ADD17R,0.02362X0.06000*%
%ADD18R,0.01181X0.06000*%
%ADD19O,0.07874X0.02165*%
%ADD20R,0.03000X0.03000*%
%ADD21P,0.03247X8X112.5*%
%ADD22R,0.03500X0.03500*%
%ADD23R,0.04724X0.05118*%
%ADD24O,0.07087X0.03150*%
%ADD25R,0.07087X0.03150*%
%ADD26R,0.03000X0.03000*%
%ADD27O,0.03150X0.07087*%
%ADD28R,0.03150X0.07087*%
G36*
X330830Y449455D02*
X331495Y448791D01*
X331854Y447922D01*
Y447452D01*
Y442334D01*
Y441864D01*
X331495Y440996D01*
X330830Y440332D01*
X329962Y439972D01*
X329022D01*
X328154Y440332D01*
X327489Y440996D01*
X327130Y441864D01*
Y442334D01*
Y447452D01*
Y447922D01*
X327489Y448791D01*
X328154Y449455D01*
X329022Y449815D01*
X329962D01*
X330830Y449455D01*
D02*
G37*
G36*
Y432999D02*
X331495Y432334D01*
X331854Y431466D01*
Y430996D01*
Y425878D01*
Y425408D01*
X331495Y424540D01*
X330830Y423875D01*
X329962Y423516D01*
X329022D01*
X328154Y423875D01*
X327489Y424540D01*
X327130Y425408D01*
Y425878D01*
Y430996D01*
Y431466D01*
X327489Y432334D01*
X328154Y432999D01*
X329022Y433358D01*
X329962D01*
X330830Y432999D01*
D02*
G37*
G36*
X346008Y421106D02*
X345024D01*
Y427106D01*
X346008D01*
Y421106D01*
D02*
G37*
G36*
X344040D02*
X343056D01*
Y427106D01*
X344040D01*
Y421106D01*
D02*
G37*
G36*
X342071D02*
X341087D01*
Y427106D01*
X342071D01*
Y421106D01*
D02*
G37*
G36*
X340103D02*
X339119D01*
Y427106D01*
X340103D01*
Y421106D01*
D02*
G37*
G36*
X338272D02*
X336106D01*
Y427106D01*
X338272D01*
Y421106D01*
D02*
G37*
G36*
X335123D02*
X332957D01*
Y427106D01*
X335123D01*
Y421106D01*
D02*
G37*
G36*
X364846Y448471D02*
X365511Y447806D01*
X365870Y446938D01*
Y446468D01*
Y443319D01*
Y442849D01*
X365511Y441980D01*
X364846Y441316D01*
X363978Y440956D01*
X363038D01*
X362170Y441316D01*
X361505Y441980D01*
X361146Y442849D01*
Y443319D01*
Y446468D01*
Y446938D01*
X361505Y447806D01*
X362170Y448471D01*
X363038Y448830D01*
X363978D01*
X364846Y448471D01*
D02*
G37*
G36*
Y432999D02*
X365511Y432335D01*
X365870Y431466D01*
Y430996D01*
Y425878D01*
Y425408D01*
X365511Y424540D01*
X364846Y423876D01*
X363978Y423516D01*
X363038D01*
X362170Y423876D01*
X361505Y424540D01*
X361146Y425408D01*
Y425878D01*
Y430996D01*
Y431466D01*
X361505Y432335D01*
X362170Y432999D01*
X363038Y433359D01*
X363978D01*
X364846Y432999D01*
D02*
G37*
G36*
X360044Y421106D02*
X357878D01*
Y427106D01*
X360044D01*
Y421106D01*
D02*
G37*
G36*
X356894D02*
X354728D01*
Y427106D01*
X356894D01*
Y421106D01*
D02*
G37*
G36*
X353882D02*
X352898D01*
Y427106D01*
X353882D01*
Y421106D01*
D02*
G37*
G36*
X351914D02*
X350930D01*
Y427106D01*
X351914D01*
Y421106D01*
D02*
G37*
G36*
X349945D02*
X348961D01*
Y427106D01*
X349945D01*
Y421106D01*
D02*
G37*
G36*
X347977D02*
X346993D01*
Y427106D01*
X347977D01*
Y421106D01*
D02*
G37*
D17*
X358961Y424106D02*
D03*
X355811D02*
D03*
X334040D02*
D03*
X337189D02*
D03*
D18*
X339611D02*
D03*
X341579D02*
D03*
X343548D02*
D03*
X345516D02*
D03*
X347485D02*
D03*
X349453D02*
D03*
X351422D02*
D03*
X353390D02*
D03*
D19*
X351900Y376709D02*
D03*
Y371709D02*
D03*
Y366709D02*
D03*
Y361709D02*
D03*
Y356709D02*
D03*
Y351709D02*
D03*
Y346709D02*
D03*
Y341709D02*
D03*
X373000Y376709D02*
D03*
Y371709D02*
D03*
Y366709D02*
D03*
Y361709D02*
D03*
Y356709D02*
D03*
Y351709D02*
D03*
Y346709D02*
D03*
Y341709D02*
D03*
D20*
X298500Y374941D02*
D03*
X337500Y332941D02*
D03*
Y339059D02*
D03*
Y354059D02*
D03*
Y347941D02*
D03*
X306000Y374941D02*
D03*
Y381059D02*
D03*
X314500Y292559D02*
D03*
Y286441D02*
D03*
D21*
X298500Y381059D02*
D03*
D22*
X421500Y353000D02*
D03*
X414500D02*
D03*
X422000Y261500D02*
D03*
X415000D02*
D03*
X422500Y169000D02*
D03*
X415500D02*
D03*
X422500Y75000D02*
D03*
X415500D02*
D03*
D23*
X321654Y347134D02*
D03*
Y338866D02*
D03*
X328346D02*
D03*
Y347134D02*
D03*
D24*
X463933Y80000D02*
D03*
X464433Y168500D02*
D03*
Y261167D02*
D03*
Y352500D02*
D03*
D25*
X443067Y80000D02*
D03*
X443567Y168500D02*
D03*
Y261167D02*
D03*
Y352500D02*
D03*
D26*
X421559Y83500D02*
D03*
X415441D02*
D03*
X323941Y361000D02*
D03*
X330059D02*
D03*
X323941Y369000D02*
D03*
X330059D02*
D03*
X421559Y177000D02*
D03*
X415441D02*
D03*
X330059Y377000D02*
D03*
X323941D02*
D03*
X329941Y416000D02*
D03*
X336059D02*
D03*
X414941Y269000D02*
D03*
X421059D02*
D03*
X420559Y360500D02*
D03*
X414441D02*
D03*
D27*
X385000Y447933D02*
D03*
D28*
Y427067D02*
D03*
M02*
