G04*
G04 #@! TF.GenerationSoftware,Altium Limited,Altium Designer,20.0.13 (296)*
G04*
G04 Layer_Color=16711935*
%FSLAX25Y25*%
%MOIN*%
G70*
G01*
G75*
%ADD14C,0.01000*%
%ADD62C,0.00020*%
%ADD63C,0.04724*%
D14*
X305670Y453989D02*
G03*
X285503Y435503I-1859J-18216D01*
G01*
X471488Y433830D02*
G03*
X453000Y454000I-18219J1859D01*
G01*
X451330Y63012D02*
G03*
X471500Y81500I1859J18219D01*
G01*
X285512Y83170D02*
G03*
X304000Y63000I18219J-1859D01*
G01*
X471500Y401500D02*
Y435500D01*
X304000Y454000D02*
X453269Y454000D01*
X471500Y80500D02*
Y92500D01*
X436625Y63000D02*
X454000D01*
X285500Y81000D02*
Y104000D01*
X303500Y63000D02*
X366875D01*
X436625D01*
X471500Y92500D02*
Y94000D01*
X285500Y104000D02*
Y431500D01*
X471500Y401500D02*
X471500Y94000D01*
X285500Y431500D02*
Y432000D01*
Y435772D01*
D62*
X359059Y430405D02*
G03*
X359059Y430405I-1181J0D01*
G01*
X336303D02*
G03*
X336303Y430405I-1181J0D01*
G01*
D63*
X284998Y83070D02*
G03*
X304004Y62498I18733J-1759D01*
G01*
X284999Y435801D02*
G03*
X284998Y435772I501J-28D01*
G01*
X305579Y454501D02*
G03*
X284999Y435801I-1767J-18729D01*
G01*
X472084Y435688D02*
G03*
X452998Y454501I-18815J0D01*
G01*
X472002Y433930D02*
G03*
X472084Y435688I-18733J1759D01*
G01*
X472004Y81231D02*
G03*
X472002Y81504I-18815J0D01*
G01*
Y80958D02*
G03*
X472004Y81231I-18813J273D01*
G01*
X471984Y80367D02*
G03*
X472002Y80500I-484J133D01*
G01*
X451430Y62498D02*
G03*
X471984Y80367I1759J18733D01*
G01*
X304004Y62498D02*
G03*
X304007Y62499I-273J18813D01*
G01*
X284998Y83070D02*
Y435772D01*
X305579Y454501D02*
X452998Y454501D01*
X472002Y401500D02*
Y433930D01*
Y401500D02*
X472002Y94000D01*
Y81504D02*
Y94000D01*
Y80500D02*
Y80958D01*
X471984Y80367D02*
X471984D01*
X304004Y62498D02*
X451430D01*
X304004D02*
X304007Y62499D01*
M02*
