G04*
G04 #@! TF.GenerationSoftware,Altium Limited,Altium Designer,20.0.13 (296)*
G04*
G04 Layer_Color=2752767*
%FSLAX25Y25*%
%MOIN*%
G70*
G01*
G75*
%ADD66C,0.00200*%
%ADD67C,0.00267*%
D66*
X425869Y146003D02*
Y147603D01*
X427469D01*
Y146003D01*
X425869D01*
Y94271D02*
Y95871D01*
X427469D01*
Y94271D01*
X425869D01*
Y238967D02*
Y240567D01*
X427469D01*
Y238967D01*
X425869D01*
Y187235D02*
Y188835D01*
X427469D01*
Y187235D01*
X425869D01*
Y331931D02*
Y333531D01*
X427469D01*
Y331931D01*
X425869D01*
Y280198D02*
Y281798D01*
X427469D01*
Y280198D01*
X425869D01*
Y424895D02*
Y426495D01*
X427469D01*
Y424895D01*
X425869D01*
Y373162D02*
Y374762D01*
X427469D01*
Y373162D01*
X425869D01*
X329492Y444093D02*
X328692Y445693D01*
X330292D01*
X329492Y444093D01*
X363508D02*
X362708Y445693D01*
X364308D01*
X363508Y444093D01*
X329491Y427637D02*
X329891Y428037D01*
X330292D01*
X329891Y428437D01*
X330292Y428837D01*
X329891D01*
X329491Y429237D01*
X329092Y428837D01*
X328692D01*
X329092Y428437D01*
X328692Y428037D01*
X329092D01*
X329491Y427637D01*
X363508D02*
X363908Y428037D01*
X364308D01*
X363908Y428437D01*
X364308Y428837D01*
X363908D01*
X363508Y429237D01*
X363108Y428837D01*
X362708D01*
X363108Y428437D01*
X362708Y428037D01*
X363108D01*
X363508Y427637D01*
X304074Y323252D02*
X304474Y324052D01*
X304074Y324852D01*
X304874Y324452D01*
X305674Y324852D01*
X305274Y324052D01*
X305674Y323252D01*
X304874Y323652D01*
X304074Y323252D01*
Y313189D02*
X304474Y313989D01*
X304074Y314789D01*
X304874Y314389D01*
X305674Y314789D01*
X305274Y313989D01*
X305674Y313189D01*
X304874Y313589D01*
X304074Y313189D01*
Y305315D02*
X304474Y306115D01*
X304074Y306915D01*
X304874Y306515D01*
X305674Y306915D01*
X305274Y306115D01*
X305674Y305315D01*
X304874Y305715D01*
X304074Y305315D01*
Y295252D02*
X304474Y296052D01*
X304074Y296852D01*
X304874Y296452D01*
X305674Y296852D01*
X305274Y296052D01*
X305674Y295252D01*
X304874Y295652D01*
X304074Y295252D01*
X296600Y332828D02*
Y332428D01*
X297400D01*
Y332828D01*
X297800D01*
Y333628D01*
X297400D01*
Y334028D01*
X296600D01*
Y333628D01*
X296200D01*
Y332828D01*
X296600D01*
Y286372D02*
Y285972D01*
X297400D01*
Y286372D01*
X297800D01*
Y287172D01*
X297400D01*
Y287572D01*
X296600D01*
Y287172D01*
X296200D01*
Y286372D01*
X296600D01*
X296200Y318058D02*
X296600D01*
X297000Y318458D01*
X297400Y318058D01*
X297800D01*
Y318458D01*
X297400Y318858D01*
X297800Y319258D01*
Y319658D01*
X297400D01*
X297000Y319258D01*
X296600Y319658D01*
X296200D01*
Y319258D01*
X296600Y318858D01*
X296200Y318458D01*
Y318058D01*
Y300342D02*
X296600D01*
X297000Y300742D01*
X297400Y300342D01*
X297800D01*
Y300742D01*
X297400Y301142D01*
X297800Y301542D01*
Y301942D01*
X297400D01*
X297000Y301542D01*
X296600Y301942D01*
X296200D01*
Y301542D01*
X296600Y301142D01*
X296200Y300742D01*
Y300342D01*
X465200Y102500D02*
X466000Y103300D01*
X466800Y102500D01*
X466000Y101700D01*
X465200Y102500D01*
X460200D02*
X461000Y103300D01*
X461800Y102500D01*
X461000Y101700D01*
X460200Y102500D01*
X465200Y98000D02*
X466000Y98800D01*
X466800Y98000D01*
X466000Y97200D01*
X465200Y98000D01*
X460200D02*
X461000Y98800D01*
X461800Y98000D01*
X461000Y97200D01*
X460200Y98000D01*
X464700Y194500D02*
X465500Y195300D01*
X466300Y194500D01*
X465500Y193700D01*
X464700Y194500D01*
X460200D02*
X461000Y195300D01*
X461800Y194500D01*
X461000Y193700D01*
X460200Y194500D01*
X464700Y190000D02*
X465500Y190800D01*
X466300Y190000D01*
X465500Y189200D01*
X464700Y190000D01*
X460200D02*
X461000Y190800D01*
X461800Y190000D01*
X461000Y189200D01*
X460200Y190000D01*
X464700Y280000D02*
X465500Y280800D01*
X466300Y280000D01*
X465500Y279200D01*
X464700Y280000D01*
X460200Y279500D02*
X461000Y280300D01*
X461800Y279500D01*
X461000Y278700D01*
X460200Y279500D01*
X464700Y275000D02*
X465500Y275800D01*
X466300Y275000D01*
X465500Y274200D01*
X464700Y275000D01*
X460200D02*
X461000Y275800D01*
X461800Y275000D01*
X461000Y274200D01*
X460200Y275000D01*
X464700Y373500D02*
X465500Y374300D01*
X466300Y373500D01*
X465500Y372700D01*
X464700Y373500D01*
X460700D02*
X461500Y374300D01*
X462300Y373500D01*
X461500Y372700D01*
X460700Y373500D01*
X464700Y369500D02*
X465500Y370300D01*
X466300Y369500D01*
X465500Y368700D01*
X464700Y369500D01*
X460700D02*
X461500Y370300D01*
X462300Y369500D01*
X461500Y368700D01*
X460700Y369500D01*
X416700Y445500D02*
X417500Y446300D01*
X418300Y445500D01*
X417500Y444700D01*
X416700Y445500D01*
X417500Y446300D01*
X418300Y445500D01*
X417500Y444700D01*
X416700Y445500D01*
X410700D02*
X411500Y446300D01*
X412300Y445500D01*
X411500Y444700D01*
X410700Y445500D01*
X417200Y450500D02*
X418000Y451300D01*
X418800Y450500D01*
X418000Y449700D01*
X417200Y450500D01*
X410700D02*
X411500Y451300D01*
X412300Y450500D01*
X411500Y449700D01*
X410700Y450500D01*
X342724Y429176D02*
Y430776D01*
X344324D01*
Y429176D01*
X342724D01*
X343124Y429576D02*
Y430376D01*
X343924D01*
Y429576D01*
X343124D01*
X323700Y416000D02*
X324500Y416800D01*
X325300Y416000D01*
X324500Y415200D01*
X323700Y416000D01*
X315700Y306000D02*
X316500Y306800D01*
X317300Y306000D01*
X316500Y305200D01*
X315700Y306000D01*
X311700D02*
X312500Y306800D01*
X313300Y306000D01*
X312500Y305200D01*
X311700Y306000D01*
X315700Y314000D02*
X316500Y314800D01*
X317300Y314000D01*
X316500Y313200D01*
X315700Y314000D01*
X312200D02*
X313000Y314800D01*
X313800Y314000D01*
X313000Y313200D01*
X312200Y314000D01*
X408200Y395000D02*
X409000Y395800D01*
X409800Y395000D01*
X409000Y394200D01*
X408200Y395000D01*
X405200Y393000D02*
X406000Y393800D01*
X406800Y393000D01*
X406000Y392200D01*
X405200Y393000D01*
X313700Y282000D02*
X314500Y282800D01*
X315300Y282000D01*
X314500Y281200D01*
X313700Y282000D01*
X320853Y338866D02*
X321654Y339666D01*
X322453Y338866D01*
X321654Y338066D01*
X320853Y338866D01*
X327547Y347134D02*
X328346Y347934D01*
X329147Y347134D01*
X328346Y346334D01*
X327547Y347134D01*
X318808Y361000D02*
X319608Y361800D01*
X320408Y361000D01*
X319608Y360200D01*
X318808Y361000D01*
X344095Y362605D02*
X344895Y363405D01*
X345695Y362605D01*
X344895Y361805D01*
X344095Y362605D01*
X310950Y392000D02*
X311750Y392800D01*
X312550Y392000D01*
X311750Y391200D01*
X310950Y392000D01*
X358700Y367500D02*
X359500Y368300D01*
X360300Y367500D01*
X359500Y366700D01*
X358700Y367500D01*
X358200Y371000D02*
X359000Y371800D01*
X359800Y371000D01*
X359000Y370200D01*
X358200Y371000D01*
X362200Y377500D02*
X363000Y378300D01*
X363800Y377500D01*
X363000Y376700D01*
X362200Y377500D01*
X358700D02*
X359500Y378300D01*
X360300Y377500D01*
X359500Y376700D01*
X358700Y377500D01*
X340391Y369809D02*
X341191Y370609D01*
X341991Y369809D01*
X341191Y369009D01*
X340391Y369809D01*
X344200D02*
X345000Y370609D01*
X345800Y369809D01*
X345000Y369009D01*
X344200Y369809D01*
X342700Y413500D02*
X343500Y414300D01*
X344300Y413500D01*
X343500Y412700D01*
X342700Y413500D01*
Y417500D02*
X343500Y418300D01*
X344300Y417500D01*
X343500Y416700D01*
X342700Y417500D01*
X350950Y381500D02*
X351750Y382300D01*
X352550Y381500D01*
X351750Y380700D01*
X350950Y381500D01*
X354700D02*
X355500Y382300D01*
X356300Y381500D01*
X355500Y380700D01*
X354700Y381500D01*
X352200Y413500D02*
X353000Y414300D01*
X353800Y413500D01*
X353000Y412700D01*
X352200Y413500D01*
Y417500D02*
X353000Y418300D01*
X353800Y417500D01*
X353000Y416700D01*
X352200Y417500D01*
X403700Y406000D02*
X404500Y406800D01*
X405300Y406000D01*
X404500Y405200D01*
X403700Y406000D01*
X408200D02*
X409000Y406800D01*
X409800Y406000D01*
X409000Y405200D01*
X408200Y406000D01*
X373700Y382500D02*
X374500Y383300D01*
X375300Y382500D01*
X374500Y381700D01*
X373700Y382500D01*
X370200D02*
X371000Y383300D01*
X371800Y382500D01*
X371000Y381700D01*
X370200Y382500D01*
X404200Y223500D02*
X405000Y224300D01*
X405800Y223500D01*
X405000Y222700D01*
X404200Y223500D01*
X388700Y376500D02*
X389500Y377300D01*
X390300Y376500D01*
X389500Y375700D01*
X388700Y376500D01*
X386200Y374104D02*
X387000Y374904D01*
X387800Y374104D01*
X387000Y373304D01*
X386200Y374104D01*
X408200Y318500D02*
X409000Y319300D01*
X409800Y318500D01*
X409000Y317700D01*
X408200Y318500D01*
Y315000D02*
X409000Y315800D01*
X409800Y315000D01*
X409000Y314200D01*
X408200Y315000D01*
X385207Y369504D02*
X386007Y370304D01*
X386807Y369504D01*
X386007Y368704D01*
X385207Y369504D01*
X380200Y369500D02*
X381000Y370300D01*
X381800Y369500D01*
X381000Y368700D01*
X380200Y369500D01*
X384700Y359000D02*
X385500Y359800D01*
X386300Y359000D01*
X385500Y358200D01*
X384700Y359000D01*
X380200D02*
X381000Y359800D01*
X381800Y359000D01*
X381000Y358200D01*
X380200Y359000D01*
X407700Y220500D02*
X408500Y221300D01*
X409300Y220500D01*
X408500Y219700D01*
X407700Y220500D01*
X377700Y331500D02*
X378500Y332300D01*
X379300Y331500D01*
X378500Y330700D01*
X377700Y331500D01*
Y335345D02*
X378500Y336145D01*
X379300Y335345D01*
X378500Y334545D01*
X377700Y335345D01*
X383700Y349000D02*
X384500Y349800D01*
X385300Y349000D01*
X384500Y348200D01*
X383700Y349000D01*
X380700D02*
X381500Y349800D01*
X382300Y349000D01*
X381500Y348200D01*
X380700Y349000D01*
X405700Y127500D02*
X406500Y128300D01*
X407300Y127500D01*
X406500Y126700D01*
X405700Y127500D01*
X408200D02*
X409000Y128300D01*
X409800Y127500D01*
X409000Y126700D01*
X408200Y127500D01*
X404200Y115500D02*
X405000Y116300D01*
X405800Y115500D01*
X405000Y114700D01*
X404200Y115500D01*
X401700D02*
X402500Y116300D01*
X403300Y115500D01*
X402500Y114700D01*
X401700Y115500D01*
X346724Y429176D02*
Y430776D01*
X348324D01*
Y429176D01*
X346724D01*
X347124Y429576D02*
Y430376D01*
X347924D01*
Y429576D01*
X347124D01*
X330700Y332500D02*
X331500Y333300D01*
X332300Y332500D01*
X331500Y331700D01*
X330700Y332500D01*
X326729D02*
X327530Y333300D01*
X328329Y332500D01*
X327530Y331700D01*
X326729Y332500D01*
X322700D02*
X323500Y333300D01*
X324300Y332500D01*
X323500Y331700D01*
X322700Y332500D01*
X318700D02*
X319500Y333300D01*
X320300Y332500D01*
X319500Y331700D01*
X318700Y332500D01*
X315450Y334250D02*
X316250Y335050D01*
X317050Y334250D01*
X316250Y333450D01*
X315450Y334250D01*
X313700Y338500D02*
X314500Y339300D01*
X315300Y338500D01*
X314500Y337700D01*
X313700Y338500D01*
Y343250D02*
X314500Y344050D01*
X315300Y343250D01*
X314500Y342450D01*
X313700Y343250D01*
Y348000D02*
X314500Y348800D01*
X315300Y348000D01*
X314500Y347200D01*
X313700Y348000D01*
X315479Y352279D02*
X316280Y353080D01*
X317079Y352279D01*
X316280Y351480D01*
X315479Y352279D01*
X318700Y354000D02*
X319500Y354800D01*
X320300Y354000D01*
X319500Y353200D01*
X318700Y354000D01*
X323200D02*
X324000Y354800D01*
X324800Y354000D01*
X324000Y353200D01*
X323200Y354000D01*
X326979Y354059D02*
X327780Y354859D01*
X328579Y354059D01*
X327780Y353259D01*
X326979Y354059D01*
X330700Y354000D02*
X331500Y354800D01*
X332300Y354000D01*
X331500Y353200D01*
X330700Y354000D01*
D67*
X416800Y107158D02*
G03*
X416800Y107158I-800J0D01*
G01*
Y117000D02*
G03*
X416800Y117000I-800J0D01*
G01*
X416800Y134716D02*
G03*
X416800Y134716I-800J0D01*
G01*
X416800Y124874D02*
G03*
X416800Y124874I-800J0D01*
G01*
Y200121D02*
G03*
X416800Y200121I-800J0D01*
G01*
Y209964D02*
G03*
X416800Y209964I-800J0D01*
G01*
X416800Y227680D02*
G03*
X416800Y227680I-800J0D01*
G01*
X416800Y217838D02*
G03*
X416800Y217838I-800J0D01*
G01*
Y293085D02*
G03*
X416800Y293085I-800J0D01*
G01*
Y302928D02*
G03*
X416800Y302928I-800J0D01*
G01*
X416800Y320644D02*
G03*
X416800Y320644I-800J0D01*
G01*
X416800Y310802D02*
G03*
X416800Y310802I-800J0D01*
G01*
Y386049D02*
G03*
X416800Y386049I-800J0D01*
G01*
Y395891D02*
G03*
X416800Y395891I-800J0D01*
G01*
X416800Y413608D02*
G03*
X416800Y413608I-800J0D01*
G01*
X416800Y403765D02*
G03*
X416800Y403765I-800J0D01*
G01*
M02*
