G04*
G04 #@! TF.GenerationSoftware,Altium Limited,Altium Designer,20.0.13 (296)*
G04*
G04 Layer_Color=16711935*
%FSLAX25Y25*%
%MOIN*%
G70*
G01*
G75*
%ADD13C,0.00800*%
D13*
X285928Y81739D02*
G03*
X303484Y64501I17803J572D01*
G01*
X284998Y84070D02*
G03*
X304004Y63499I18733J-1759D01*
G01*
X451430D02*
G03*
X471984Y81367I1759J18733D01*
G01*
X303724Y454581D02*
G03*
X286004Y436511I88J-17809D01*
G01*
X305579Y455502D02*
G03*
X285001Y436496I-1767J-18729D01*
G01*
X454223Y64449D02*
G03*
X470998Y81966I-1034J17782D01*
G01*
Y95000D02*
G03*
X472002Y95000I501J0D01*
G01*
Y93500D02*
G03*
X470998Y93500I-501J0D01*
G01*
X471081Y436775D02*
G03*
X453313Y454500I-17812J-87D01*
G01*
X472084Y436689D02*
G03*
X452998Y455502I-18815J0D01*
G01*
X472002Y434930D02*
G03*
X472084Y436689I-18733J1759D01*
G01*
X286001Y82000D02*
Y84023D01*
X303500Y64502D02*
X451220D01*
X304004Y63499D02*
X451430D01*
X451477Y64502D02*
X454000D01*
X284998Y84070D02*
Y436272D01*
X286001Y84280D02*
Y436272D01*
X304000Y454498D02*
X305531D01*
X305777D02*
X452994Y454498D01*
X305579Y455502D02*
X452998Y455502D01*
X470998Y402500D02*
X470998Y95000D01*
Y81966D02*
Y93500D01*
X472002Y82504D02*
Y93500D01*
Y81500D02*
Y81958D01*
X470998Y402500D02*
Y434720D01*
Y434977D02*
Y436500D01*
X472002Y402500D02*
Y434930D01*
Y402500D02*
X472002Y95000D01*
M02*
