G04*
G04 #@! TF.GenerationSoftware,Altium Limited,Altium Designer,20.0.13 (296)*
G04*
G04 Layer_Physical_Order=1*
G04 Layer_Color=255*
%FSLAX25Y25*%
%MOIN*%
G70*
G01*
G75*
%ADD14C,0.01000*%
%ADD15C,0.00600*%
%ADD17R,0.02362X0.06000*%
%ADD18R,0.01181X0.06000*%
%ADD19O,0.07874X0.02165*%
%ADD20R,0.03000X0.03000*%
%ADD21P,0.03247X8X112.5*%
%ADD22R,0.03500X0.03500*%
%ADD23R,0.04724X0.05118*%
%ADD24O,0.07087X0.03150*%
%ADD25R,0.07087X0.03150*%
%ADD26R,0.03000X0.03000*%
%ADD27O,0.03150X0.07087*%
%ADD28R,0.03150X0.07087*%
%ADD49C,0.04000*%
%ADD50C,0.02000*%
%ADD51C,0.01500*%
%ADD52O,0.17717X0.11811*%
%ADD53R,0.07087X0.07087*%
%ADD54C,0.07087*%
%ADD55O,0.04724X0.07874*%
%ADD56O,0.04724X0.09843*%
%ADD57O,0.08661X0.06299*%
%ADD58O,0.15000X0.06000*%
%ADD59C,0.04331*%
%ADD60C,0.02400*%
%ADD61C,0.01600*%
G36*
X348070Y429391D02*
X348057Y429375D01*
X348046Y429350D01*
X348037Y429318D01*
X348028Y429276D01*
X348021Y429227D01*
X348010Y429104D01*
X348005Y428856D01*
X347005Y428888D01*
X347004Y428978D01*
X346978Y429347D01*
X346970Y429379D01*
X346960Y429403D01*
X346950Y429419D01*
X348070Y429391D01*
D02*
G37*
G36*
X344091Y429407D02*
X344082Y429383D01*
X344074Y429351D01*
X344067Y429311D01*
X344057Y429205D01*
X344050Y429065D01*
X344048Y428892D01*
X343048Y428853D01*
X343047Y428944D01*
X343024Y429273D01*
X343015Y429314D01*
X343005Y429347D01*
X342994Y429372D01*
X342981Y429388D01*
X344101Y429422D01*
X344091Y429407D01*
D02*
G37*
G36*
X331852Y429531D02*
X331882Y429446D01*
X331933Y429371D01*
X332003Y429306D01*
X332095Y429251D01*
X332206Y429206D01*
X332337Y429171D01*
X332489Y429146D01*
X332661Y429131D01*
X332854Y429126D01*
Y428126D01*
X332661Y428121D01*
X332489Y428106D01*
X332337Y428081D01*
X332206Y428046D01*
X332095Y428001D01*
X332003Y427946D01*
X331933Y427881D01*
X331882Y427806D01*
X331852Y427721D01*
X331842Y427626D01*
Y429626D01*
X331852Y429531D01*
D02*
G37*
G36*
X349954Y427904D02*
X350003Y427134D01*
X350017Y427104D01*
X350032Y427094D01*
X348874D01*
X348889Y427104D01*
X348903Y427134D01*
X348915Y427184D01*
X348925Y427254D01*
X348940Y427454D01*
X348953Y428094D01*
X349953D01*
X349954Y427904D01*
D02*
G37*
G36*
X348005D02*
X348052Y427104D01*
X348063Y427094D01*
X346906D01*
X346925Y427104D01*
X346942Y427134D01*
X346956Y427184D01*
X346969Y427254D01*
X346980Y427344D01*
X346996Y427584D01*
X347005Y428094D01*
X348005D01*
X348005Y427904D01*
D02*
G37*
G36*
X346017D02*
X346066Y427134D01*
X346080Y427104D01*
X346094Y427094D01*
X344937D01*
X344952Y427104D01*
X344966Y427134D01*
X344977Y427184D01*
X344988Y427254D01*
X345003Y427454D01*
X345016Y428094D01*
X346016D01*
X346017Y427904D01*
D02*
G37*
G36*
X344049D02*
X344098Y427134D01*
X344112Y427104D01*
X344127Y427094D01*
X342969D01*
X342984Y427104D01*
X342998Y427134D01*
X343009Y427184D01*
X343020Y427254D01*
X343035Y427454D01*
X343048Y428094D01*
X344048D01*
X344049Y427904D01*
D02*
G37*
G36*
X334544Y427861D02*
X334558Y427700D01*
X334580Y427558D01*
X334611Y427435D01*
X334651Y427331D01*
X334701Y427246D01*
X334759Y427179D01*
X334825Y427132D01*
X334901Y427104D01*
X334986Y427094D01*
X333094D01*
X333179Y427104D01*
X333255Y427132D01*
X333321Y427179D01*
X333379Y427246D01*
X333429Y427331D01*
X333469Y427435D01*
X333500Y427558D01*
X333522Y427700D01*
X333536Y427861D01*
X333540Y428040D01*
X334540D01*
X334544Y427861D01*
D02*
G37*
G36*
X338037Y421121D02*
X337964Y421093D01*
X337899Y421046D01*
X337844Y420980D01*
X337796Y420895D01*
X337758Y420791D01*
X337728Y420669D01*
X337706Y420528D01*
X337693Y420368D01*
X337689Y420189D01*
X336689D01*
X336685Y420368D01*
X336672Y420528D01*
X336650Y420669D01*
X336620Y420791D01*
X336582Y420895D01*
X336535Y420980D01*
X336479Y421046D01*
X336414Y421093D01*
X336341Y421121D01*
X336260Y421130D01*
X338118D01*
X338037Y421121D01*
D02*
G37*
G36*
X350017Y421108D02*
X350003Y421078D01*
X349991Y421028D01*
X349981Y420958D01*
X349966Y420758D01*
X349953Y420118D01*
X348953D01*
X348952Y420308D01*
X348903Y421078D01*
X348889Y421108D01*
X348874Y421118D01*
X350032D01*
X350017Y421108D01*
D02*
G37*
G36*
X348052D02*
X348041Y421078D01*
X348031Y421028D01*
X348023Y420958D01*
X348010Y420758D01*
X348000Y420118D01*
X347000D01*
X346999Y420308D01*
X346954Y421028D01*
X346940Y421078D01*
X346924Y421108D01*
X346906Y421118D01*
X348063D01*
X348052Y421108D01*
D02*
G37*
G36*
X336505Y418296D02*
X336520Y418124D01*
X336545Y417972D01*
X336580Y417840D01*
X336625Y417729D01*
X336680Y417638D01*
X336745Y417567D01*
X336820Y417517D01*
X336905Y417486D01*
X337000Y417476D01*
X335000D01*
X335095Y417486D01*
X335180Y417517D01*
X335255Y417567D01*
X335320Y417638D01*
X335375Y417729D01*
X335420Y417840D01*
X335455Y417972D01*
X335480Y418124D01*
X335495Y418296D01*
X335500Y418488D01*
X336500D01*
X336505Y418296D01*
D02*
G37*
G36*
X325427Y416775D02*
X325502Y416718D01*
X325583Y416667D01*
X325670Y416622D01*
X325762Y416585D01*
X325860Y416554D01*
X325964Y416531D01*
X326074Y416514D01*
X326190Y416503D01*
X326311Y416500D01*
Y415500D01*
X326190Y415497D01*
X326074Y415486D01*
X325964Y415469D01*
X325860Y415446D01*
X325762Y415415D01*
X325670Y415378D01*
X325583Y415333D01*
X325502Y415282D01*
X325427Y415225D01*
X325357Y415160D01*
Y416840D01*
X325427Y416775D01*
D02*
G37*
G36*
X328465Y415000D02*
X328455Y415095D01*
X328425Y415180D01*
X328374Y415255D01*
X328303Y415320D01*
X328212Y415375D01*
X328101Y415420D01*
X327969Y415455D01*
X327817Y415480D01*
X327645Y415495D01*
X327453Y415500D01*
Y416500D01*
X327645Y416505D01*
X327817Y416520D01*
X327969Y416545D01*
X328101Y416580D01*
X328212Y416625D01*
X328303Y416680D01*
X328374Y416745D01*
X328425Y416820D01*
X328455Y416905D01*
X328465Y417000D01*
Y415000D01*
D02*
G37*
G36*
X336964Y414502D02*
X336879Y414472D01*
X336804Y414422D01*
X336739Y414352D01*
X336684Y414262D01*
X336639Y414152D01*
X336604Y414022D01*
X336579Y413872D01*
X336564Y413702D01*
X336559Y413512D01*
X335559D01*
X335554Y413702D01*
X335539Y413872D01*
X335514Y414022D01*
X335479Y414152D01*
X335434Y414262D01*
X335379Y414352D01*
X335314Y414422D01*
X335239Y414472D01*
X335154Y414502D01*
X335059Y414512D01*
X337059D01*
X336964Y414502D01*
D02*
G37*
G36*
X414122Y400761D02*
X414015Y400815D01*
X413904Y400849D01*
X413789Y400861D01*
X413668Y400852D01*
X413544Y400821D01*
X413416Y400769D01*
X413283Y400696D01*
X413146Y400601D01*
X413004Y400485D01*
X412858Y400348D01*
X411798Y401409D01*
X411969Y401588D01*
X412249Y401926D01*
X412357Y402086D01*
X412444Y402239D01*
X412510Y402386D01*
X412555Y402527D01*
X412578Y402661D01*
X412580Y402788D01*
X412562Y402910D01*
X414122Y400761D01*
D02*
G37*
G36*
X413004Y399171D02*
X413146Y399055D01*
X413283Y398961D01*
X413416Y398887D01*
X413544Y398836D01*
X413668Y398805D01*
X413789Y398796D01*
X413904Y398808D01*
X414015Y398841D01*
X414122Y398896D01*
X412562Y396747D01*
X412580Y396868D01*
X412578Y396996D01*
X412555Y397130D01*
X412510Y397270D01*
X412444Y397417D01*
X412357Y397571D01*
X412249Y397730D01*
X412120Y397897D01*
X411969Y398069D01*
X411798Y398248D01*
X412858Y399309D01*
X413004Y399171D01*
D02*
G37*
G36*
X312677Y392775D02*
X312752Y392718D01*
X312833Y392667D01*
X312920Y392622D01*
X313012Y392585D01*
X313110Y392554D01*
X313214Y392531D01*
X313324Y392514D01*
X313440Y392503D01*
X313561Y392500D01*
Y391500D01*
X313440Y391497D01*
X313324Y391486D01*
X313214Y391469D01*
X313110Y391446D01*
X313012Y391415D01*
X312920Y391378D01*
X312833Y391333D01*
X312752Y391282D01*
X312677Y391225D01*
X312607Y391160D01*
X311750Y392000D01*
X312607Y392840D01*
X312677Y392775D01*
D02*
G37*
G36*
X311750Y392000D02*
X310893Y391160D01*
X310823Y391225D01*
X310748Y391282D01*
X310667Y391333D01*
X310580Y391378D01*
X310488Y391415D01*
X310390Y391446D01*
X310286Y391469D01*
X310176Y391486D01*
X310060Y391497D01*
X309939Y391500D01*
Y392500D01*
X310060Y392503D01*
X310176Y392514D01*
X310286Y392531D01*
X310390Y392554D01*
X310488Y392585D01*
X310580Y392622D01*
X310667Y392667D01*
X310748Y392718D01*
X310823Y392775D01*
X310893Y392840D01*
X311750Y392000D01*
D02*
G37*
G36*
X306505Y383355D02*
X306520Y383183D01*
X306545Y383031D01*
X306580Y382899D01*
X306625Y382788D01*
X306680Y382697D01*
X306745Y382626D01*
X306820Y382575D01*
X306905Y382545D01*
X307000Y382535D01*
X305000D01*
X305095Y382545D01*
X305180Y382575D01*
X305255Y382626D01*
X305320Y382697D01*
X305375Y382788D01*
X305420Y382899D01*
X305455Y383031D01*
X305480Y383183D01*
X305495Y383355D01*
X305500Y383547D01*
X306500D01*
X306505Y383355D01*
D02*
G37*
G36*
X299006Y383308D02*
X299045Y382906D01*
X299080Y382743D01*
X299126Y382605D01*
X299181Y382492D01*
X299246Y382404D01*
X299321Y382341D01*
X299406Y382303D01*
X299500Y382291D01*
X297500D01*
X297596Y382303D01*
X297680Y382341D01*
X297756Y382404D01*
X297820Y382492D01*
X297875Y382605D01*
X297920Y382743D01*
X297955Y382906D01*
X297980Y383095D01*
X297995Y383308D01*
X298001Y383547D01*
X299001D01*
X299006Y383308D01*
D02*
G37*
G36*
X416251Y382498D02*
X416081Y382437D01*
X415931Y382337D01*
X415801Y382197D01*
X415691Y382017D01*
X415601Y381798D01*
X415531Y381538D01*
X415481Y381238D01*
X415451Y380897D01*
X415441Y380518D01*
X413441D01*
X413431Y380897D01*
X413402Y381238D01*
X413353Y381538D01*
X413285Y381798D01*
X413198Y382017D01*
X413091Y382197D01*
X412964Y382337D01*
X412819Y382437D01*
X412653Y382498D01*
X412469Y382518D01*
X416441D01*
X416251Y382498D01*
D02*
G37*
G36*
X330564Y379298D02*
X330579Y379128D01*
X330604Y378978D01*
X330639Y378848D01*
X330684Y378738D01*
X330739Y378648D01*
X330804Y378578D01*
X330879Y378528D01*
X330964Y378498D01*
X331059Y378488D01*
X329059D01*
X329154Y378498D01*
X329239Y378528D01*
X329314Y378578D01*
X329379Y378648D01*
X329434Y378738D01*
X329479Y378848D01*
X329514Y378978D01*
X329539Y379128D01*
X329554Y379298D01*
X329559Y379488D01*
X330559D01*
X330564Y379298D01*
D02*
G37*
G36*
X324446D02*
X324461Y379128D01*
X324486Y378978D01*
X324521Y378848D01*
X324566Y378738D01*
X324621Y378648D01*
X324686Y378578D01*
X324761Y378528D01*
X324846Y378498D01*
X324941Y378488D01*
X322941D01*
X323036Y378498D01*
X323121Y378528D01*
X323196Y378578D01*
X323261Y378648D01*
X323316Y378738D01*
X323361Y378848D01*
X323396Y378978D01*
X323421Y379128D01*
X323436Y379298D01*
X323441Y379488D01*
X324441D01*
X324446Y379298D01*
D02*
G37*
G36*
X331545Y377905D02*
X331575Y377820D01*
X331626Y377745D01*
X331697Y377680D01*
X331788Y377625D01*
X331899Y377580D01*
X332031Y377545D01*
X332183Y377520D01*
X332355Y377505D01*
X332547Y377500D01*
Y376500D01*
X332355Y376495D01*
X332183Y376480D01*
X332031Y376455D01*
X331899Y376420D01*
X331788Y376375D01*
X331697Y376320D01*
X331626Y376255D01*
X331575Y376180D01*
X331545Y376095D01*
X331535Y376000D01*
Y378000D01*
X331545Y377905D01*
D02*
G37*
G36*
X355749Y376668D02*
X355707Y376593D01*
X355693Y376502D01*
X355708Y376397D01*
X355751Y376278D01*
X355823Y376143D01*
X355923Y375994D01*
X356052Y375831D01*
X356209Y375653D01*
X356395Y375460D01*
X355512Y374929D01*
X355321Y375113D01*
X354973Y375406D01*
X354816Y375515D01*
X354669Y375598D01*
X354534Y375657D01*
X354410Y375691D01*
X354297Y375699D01*
X354195Y375683D01*
X354105Y375641D01*
X355820Y376730D01*
X355749Y376668D01*
D02*
G37*
G36*
X376901Y376561D02*
X376914Y376532D01*
X376943Y376489D01*
X376988Y376432D01*
X377127Y376274D01*
X377596Y375790D01*
X376535Y374729D01*
X375530Y375641D01*
X376905Y376576D01*
X376901Y376561D01*
D02*
G37*
G36*
X330926Y375514D02*
X330849Y375485D01*
X330781Y375437D01*
X330722Y375370D01*
X330672Y375283D01*
X330631Y375177D01*
X330600Y375051D01*
X330577Y374906D01*
X330564Y374742D01*
X330559Y374559D01*
X329559D01*
X329555Y374742D01*
X329541Y374906D01*
X329518Y375051D01*
X329487Y375177D01*
X329446Y375283D01*
X329396Y375370D01*
X329337Y375437D01*
X329269Y375485D01*
X329192Y375514D01*
X329106Y375524D01*
X331012D01*
X330926Y375514D01*
D02*
G37*
G36*
X304512Y373453D02*
X304502Y373546D01*
X304472Y373629D01*
X304422Y373702D01*
X304352Y373766D01*
X304262Y373820D01*
X304152Y373864D01*
X304022Y373898D01*
X303872Y373922D01*
X303702Y373937D01*
X303512Y373942D01*
Y374942D01*
X303704Y374947D01*
X303875Y374962D01*
X304027Y374987D01*
X304158Y375022D01*
X304270Y375067D01*
X304361Y375122D01*
X304432Y375187D01*
X304483Y375262D01*
X304513Y375347D01*
X304524Y375442D01*
X304512Y373453D01*
D02*
G37*
G36*
X299998Y375347D02*
X300028Y375262D01*
X300079Y375187D01*
X300149Y375122D01*
X300238Y375067D01*
X300348Y375022D01*
X300479Y374987D01*
X300628Y374962D01*
X300799Y374947D01*
X300989Y374942D01*
Y373942D01*
X300799Y373937D01*
X300628Y373922D01*
X300479Y373898D01*
X300348Y373863D01*
X300238Y373819D01*
X300149Y373765D01*
X300079Y373702D01*
X300028Y373629D01*
X299998Y373546D01*
X299989Y373453D01*
Y375442D01*
X299998Y375347D01*
D02*
G37*
G36*
X356395Y372958D02*
X356209Y372766D01*
X355923Y372424D01*
X355823Y372275D01*
X355751Y372141D01*
X355708Y372022D01*
X355693Y371916D01*
X355707Y371826D01*
X355749Y371750D01*
X355820Y371689D01*
X354105Y372777D01*
X354195Y372736D01*
X354297Y372719D01*
X354410Y372728D01*
X354534Y372762D01*
X354669Y372820D01*
X354816Y372904D01*
X354973Y373013D01*
X355142Y373147D01*
X355321Y373306D01*
X355512Y373490D01*
X356395Y372958D01*
D02*
G37*
G36*
X377596Y372629D02*
X377454Y372487D01*
X376901Y371858D01*
X376905Y371843D01*
X375530Y372777D01*
X375550Y372780D01*
X375588Y372802D01*
X375644Y372844D01*
X375717Y372905D01*
X376191Y373349D01*
X376535Y373690D01*
X377596Y372629D01*
D02*
G37*
G36*
X422331Y368246D02*
X422231Y368279D01*
X422126Y368292D01*
X422014Y368285D01*
X421897Y368259D01*
X421773Y368212D01*
X421644Y368145D01*
X421509Y368059D01*
X421368Y367953D01*
X421220Y367827D01*
X421067Y367681D01*
X420205Y368233D01*
X420326Y368361D01*
X420424Y368480D01*
X420499Y368590D01*
X420550Y368691D01*
X420578Y368783D01*
X420584Y368867D01*
X420566Y368942D01*
X420525Y369007D01*
X420461Y369064D01*
X420374Y369112D01*
X422331Y368246D01*
D02*
G37*
G36*
X331545Y369905D02*
X331575Y369820D01*
X331626Y369745D01*
X331697Y369680D01*
X331788Y369625D01*
X331899Y369580D01*
X332031Y369545D01*
X332183Y369520D01*
X332355Y369505D01*
X332547Y369500D01*
Y368500D01*
X332355Y368495D01*
X332183Y368480D01*
X332031Y368455D01*
X331899Y368420D01*
X331788Y368375D01*
X331697Y368320D01*
X331626Y368255D01*
X331575Y368180D01*
X331545Y368095D01*
X331535Y368000D01*
Y370000D01*
X331545Y369905D01*
D02*
G37*
G36*
X324846Y367502D02*
X324761Y367472D01*
X324686Y367422D01*
X324621Y367352D01*
X324566Y367262D01*
X324521Y367152D01*
X324486Y367022D01*
X324461Y366872D01*
X324446Y366702D01*
X324441Y366512D01*
X323441D01*
X323436Y366702D01*
X323421Y366872D01*
X323396Y367022D01*
X323361Y367152D01*
X323316Y367262D01*
X323261Y367352D01*
X323196Y367422D01*
X323121Y367472D01*
X323036Y367502D01*
X322941Y367512D01*
X324941D01*
X324846Y367502D01*
D02*
G37*
G36*
X348506Y365774D02*
X348390Y365857D01*
X348268Y365931D01*
X348140Y365996D01*
X348008Y366053D01*
X347869Y366101D01*
X347725Y366140D01*
X347576Y366170D01*
X347421Y366192D01*
X347260Y366205D01*
X347094Y366209D01*
Y367209D01*
X347260Y367214D01*
X347421Y367227D01*
X347576Y367249D01*
X347725Y367279D01*
X347869Y367318D01*
X348008Y367366D01*
X348140Y367423D01*
X348268Y367488D01*
X348390Y367562D01*
X348506Y367645D01*
Y365774D01*
D02*
G37*
G36*
X376901Y366561D02*
X376914Y366532D01*
X376943Y366489D01*
X376988Y366432D01*
X377127Y366274D01*
X377596Y365790D01*
X376535Y364729D01*
X375530Y365641D01*
X376905Y366576D01*
X376901Y366561D01*
D02*
G37*
G36*
X324446Y363296D02*
X324461Y363124D01*
X324486Y362972D01*
X324521Y362840D01*
X324566Y362729D01*
X324621Y362638D01*
X324686Y362567D01*
X324761Y362516D01*
X324846Y362486D01*
X324941Y362476D01*
X322941D01*
X323036Y362486D01*
X323121Y362516D01*
X323196Y362567D01*
X323261Y362638D01*
X323316Y362729D01*
X323361Y362840D01*
X323396Y362972D01*
X323421Y363124D01*
X323436Y363296D01*
X323441Y363488D01*
X324441D01*
X324446Y363296D01*
D02*
G37*
G36*
X421064Y362798D02*
X421079Y362628D01*
X421104Y362478D01*
X421139Y362348D01*
X421184Y362238D01*
X421239Y362148D01*
X421304Y362078D01*
X421379Y362028D01*
X421464Y361998D01*
X421559Y361988D01*
X419559D01*
X419654Y361998D01*
X419739Y362028D01*
X419814Y362078D01*
X419879Y362148D01*
X419934Y362238D01*
X419979Y362348D01*
X420014Y362478D01*
X420039Y362628D01*
X420054Y362798D01*
X420059Y362988D01*
X421059D01*
X421064Y362798D01*
D02*
G37*
G36*
X415446Y363608D02*
X415519Y362708D01*
X415563Y362488D01*
X415617Y362308D01*
X415680Y362168D01*
X415753Y362068D01*
X415836Y362008D01*
X415929Y361988D01*
X412953D01*
X413046Y362008D01*
X413129Y362068D01*
X413202Y362168D01*
X413265Y362308D01*
X413319Y362488D01*
X413363Y362708D01*
X413397Y362968D01*
X413436Y363608D01*
X413441Y363988D01*
X415441D01*
X415446Y363608D01*
D02*
G37*
G36*
X377596Y362629D02*
X377454Y362487D01*
X376901Y361858D01*
X376905Y361843D01*
X375530Y362777D01*
X375550Y362780D01*
X375588Y362802D01*
X375644Y362844D01*
X375717Y362905D01*
X376191Y363349D01*
X376535Y363690D01*
X377596Y362629D01*
D02*
G37*
G36*
X348506Y360774D02*
X348390Y360857D01*
X348268Y360931D01*
X348140Y360996D01*
X348008Y361053D01*
X347869Y361101D01*
X347725Y361140D01*
X347576Y361170D01*
X347421Y361192D01*
X347260Y361205D01*
X347094Y361209D01*
Y362209D01*
X347260Y362214D01*
X347421Y362227D01*
X347576Y362248D01*
X347725Y362279D01*
X347869Y362318D01*
X348008Y362366D01*
X348140Y362423D01*
X348268Y362488D01*
X348390Y362562D01*
X348506Y362645D01*
Y360774D01*
D02*
G37*
G36*
X320534Y361775D02*
X320610Y361718D01*
X320691Y361667D01*
X320777Y361622D01*
X320870Y361585D01*
X320968Y361554D01*
X321072Y361531D01*
X321182Y361514D01*
X321297Y361503D01*
X321419Y361500D01*
Y360500D01*
X321297Y360497D01*
X321182Y360486D01*
X321072Y360469D01*
X320968Y360446D01*
X320870Y360415D01*
X320777Y360378D01*
X320691Y360333D01*
X320610Y360282D01*
X320534Y360225D01*
X320465Y360160D01*
Y361840D01*
X320534Y361775D01*
D02*
G37*
G36*
X331545Y361905D02*
X331575Y361820D01*
X331626Y361745D01*
X331697Y361680D01*
X331788Y361625D01*
X331899Y361580D01*
X332031Y361545D01*
X332183Y361520D01*
X332355Y361505D01*
X332547Y361500D01*
Y360500D01*
X332355Y360495D01*
X332183Y360480D01*
X332031Y360455D01*
X331899Y360420D01*
X331788Y360375D01*
X331697Y360320D01*
X331626Y360255D01*
X331575Y360180D01*
X331545Y360095D01*
X331535Y360000D01*
Y362000D01*
X331545Y361905D01*
D02*
G37*
G36*
X322465Y360000D02*
X322455Y360095D01*
X322425Y360180D01*
X322374Y360255D01*
X322303Y360320D01*
X322212Y360375D01*
X322101Y360420D01*
X321969Y360455D01*
X321817Y360480D01*
X321645Y360495D01*
X321453Y360500D01*
Y361500D01*
X321645Y361505D01*
X321817Y361520D01*
X321969Y361545D01*
X322101Y361580D01*
X322212Y361625D01*
X322303Y361680D01*
X322374Y361745D01*
X322425Y361820D01*
X322455Y361905D01*
X322465Y362000D01*
Y360000D01*
D02*
G37*
G36*
X415847Y358992D02*
X415774Y358932D01*
X415710Y358832D01*
X415654Y358692D01*
X415607Y358512D01*
X415569Y358292D01*
X415539Y358032D01*
X415504Y357392D01*
X415500Y357012D01*
X413500D01*
X413494Y357392D01*
X413451Y358032D01*
X413413Y358292D01*
X413363Y358512D01*
X413303Y358692D01*
X413232Y358832D01*
X413150Y358932D01*
X413057Y358992D01*
X412953Y359012D01*
X415929D01*
X415847Y358992D01*
D02*
G37*
G36*
X348506Y355774D02*
X348390Y355857D01*
X348268Y355931D01*
X348140Y355996D01*
X348008Y356053D01*
X347869Y356101D01*
X347725Y356140D01*
X347576Y356170D01*
X347421Y356192D01*
X347260Y356205D01*
X347094Y356209D01*
Y357209D01*
X347260Y357214D01*
X347421Y357227D01*
X347576Y357248D01*
X347725Y357279D01*
X347869Y357318D01*
X348008Y357366D01*
X348140Y357423D01*
X348268Y357488D01*
X348390Y357562D01*
X348506Y357645D01*
Y355774D01*
D02*
G37*
G36*
X415507Y356358D02*
X415566Y355718D01*
X415618Y355458D01*
X415685Y355238D01*
X415766Y355058D01*
X415862Y354918D01*
X415972Y354818D01*
X416098Y354758D01*
X416238Y354738D01*
X412762D01*
X412902Y354758D01*
X413028Y354818D01*
X413138Y354918D01*
X413234Y355058D01*
X413315Y355238D01*
X413382Y355458D01*
X413434Y355718D01*
X413471Y356018D01*
X413493Y356358D01*
X413500Y356738D01*
X415500D01*
X415507Y356358D01*
D02*
G37*
G36*
X376901Y356561D02*
X376914Y356532D01*
X376943Y356489D01*
X376988Y356432D01*
X377127Y356274D01*
X377596Y355790D01*
X376535Y354729D01*
X375530Y355641D01*
X376905Y356576D01*
X376901Y356561D01*
D02*
G37*
G36*
X332387Y354820D02*
X332465Y354765D01*
X332548Y354717D01*
X332637Y354675D01*
X332731Y354640D01*
X332830Y354611D01*
X332935Y354588D01*
X333045Y354572D01*
X333161Y354562D01*
X333282Y354559D01*
X333336Y353559D01*
X333215Y353555D01*
X333099Y353545D01*
X332990Y353527D01*
X332887Y353502D01*
X332790Y353470D01*
X332699Y353431D01*
X332614Y353385D01*
X332536Y353331D01*
X332464Y353271D01*
X332397Y353203D01*
X331500Y354083D01*
X330603Y353203D01*
X330537Y353271D01*
X330464Y353331D01*
X330385Y353385D01*
X330301Y353431D01*
X330210Y353470D01*
X330113Y353502D01*
X330010Y353527D01*
X329901Y353545D01*
X329785Y353555D01*
X329664Y353559D01*
X329718Y354559D01*
X329839Y354562D01*
X329955Y354572D01*
X330065Y354588D01*
X330170Y354611D01*
X330269Y354640D01*
X330363Y354675D01*
X330452Y354717D01*
X330535Y354765D01*
X330613Y354820D01*
X330685Y354881D01*
X331500Y354083D01*
X332315Y354881D01*
X332387Y354820D01*
D02*
G37*
G36*
X324887D02*
X324965Y354765D01*
X325048Y354717D01*
X325137Y354675D01*
X325231Y354640D01*
X325330Y354611D01*
X325435Y354588D01*
X325545Y354572D01*
X325661Y354562D01*
X325782Y354559D01*
X325836Y353559D01*
X325715Y353555D01*
X325599Y353545D01*
X325490Y353527D01*
X325387Y353502D01*
X325290Y353470D01*
X325199Y353431D01*
X325114Y353385D01*
X325036Y353331D01*
X324963Y353271D01*
X324897Y353203D01*
X324000Y354083D01*
X323103Y353203D01*
X323037Y353271D01*
X322964Y353331D01*
X322885Y353385D01*
X322801Y353431D01*
X322710Y353470D01*
X322613Y353502D01*
X322510Y353527D01*
X322401Y353545D01*
X322285Y353555D01*
X322164Y353559D01*
X322218Y354559D01*
X322339Y354562D01*
X322455Y354572D01*
X322565Y354588D01*
X322670Y354611D01*
X322769Y354640D01*
X322863Y354675D01*
X322952Y354717D01*
X323035Y354765D01*
X323113Y354820D01*
X323185Y354881D01*
X324000Y354083D01*
X324815Y354881D01*
X324887Y354820D01*
D02*
G37*
G36*
X328706Y354835D02*
X328781Y354777D01*
X328862Y354726D01*
X328949Y354681D01*
X329042Y354644D01*
X329140Y354613D01*
X329244Y354590D01*
X329354Y354573D01*
X329469Y354562D01*
X329590Y354559D01*
Y353559D01*
X329469Y353556D01*
X329354Y353545D01*
X329244Y353528D01*
X329140Y353505D01*
X329042Y353474D01*
X328949Y353437D01*
X328862Y353393D01*
X328781Y353342D01*
X328706Y353284D01*
X328637Y353219D01*
X327780Y354059D01*
X328637Y354899D01*
X328706Y354835D01*
D02*
G37*
G36*
X327780Y354059D02*
X326923Y353219D01*
X326853Y353284D01*
X326778Y353342D01*
X326697Y353393D01*
X326610Y353437D01*
X326518Y353474D01*
X326419Y353505D01*
X326315Y353528D01*
X326205Y353545D01*
X326090Y353556D01*
X325969Y353559D01*
Y354559D01*
X326090Y354562D01*
X326205Y354573D01*
X326315Y354590D01*
X326419Y354613D01*
X326518Y354644D01*
X326610Y354681D01*
X326697Y354726D01*
X326778Y354777D01*
X326853Y354835D01*
X326923Y354899D01*
X327780Y354059D01*
D02*
G37*
G36*
X320387Y354820D02*
X320465Y354765D01*
X320548Y354717D01*
X320637Y354675D01*
X320731Y354640D01*
X320830Y354611D01*
X320935Y354588D01*
X321045Y354572D01*
X321161Y354562D01*
X321282Y354559D01*
X321336Y353559D01*
X321215Y353555D01*
X321099Y353545D01*
X320990Y353527D01*
X320887Y353502D01*
X320790Y353470D01*
X320699Y353431D01*
X320615Y353385D01*
X320536Y353331D01*
X320463Y353271D01*
X320397Y353203D01*
X320315Y354881D01*
X320387Y354820D01*
D02*
G37*
G36*
X336012Y353059D02*
X336002Y353154D01*
X335972Y353239D01*
X335922Y353314D01*
X335852Y353379D01*
X335762Y353434D01*
X335652Y353479D01*
X335522Y353514D01*
X335372Y353539D01*
X335202Y353554D01*
X335012Y353559D01*
Y354559D01*
X335202Y354564D01*
X335372Y354579D01*
X335522Y354604D01*
X335652Y354639D01*
X335762Y354684D01*
X335852Y354739D01*
X335922Y354804D01*
X335972Y354879D01*
X336002Y354964D01*
X336012Y355059D01*
Y353059D01*
D02*
G37*
G36*
X377596Y352629D02*
X377454Y352487D01*
X376901Y351858D01*
X376905Y351843D01*
X375530Y352777D01*
X375550Y352780D01*
X375588Y352802D01*
X375644Y352844D01*
X375717Y352905D01*
X376191Y353349D01*
X376535Y353690D01*
X377596Y352629D01*
D02*
G37*
G36*
X423247Y354310D02*
X423308Y354140D01*
X423409Y353990D01*
X423550Y353860D01*
X423731Y353750D01*
X423952Y353660D01*
X424213Y353590D01*
X424515Y353540D01*
X424856Y353510D01*
X425238Y353500D01*
Y351500D01*
X424858Y351498D01*
X423558Y351414D01*
X423418Y351383D01*
X423318Y351348D01*
X423258Y351307D01*
X423238Y351262D01*
X423226Y354500D01*
X423247Y354310D01*
D02*
G37*
G36*
X440036Y350937D02*
X440016Y351044D01*
X439956Y351140D01*
X439856Y351224D01*
X439716Y351297D01*
X439536Y351359D01*
X439316Y351410D01*
X439056Y351449D01*
X438756Y351478D01*
X438036Y351500D01*
Y353500D01*
X438416Y353506D01*
X439056Y353551D01*
X439316Y353590D01*
X439536Y353641D01*
X439716Y353703D01*
X439856Y353776D01*
X439956Y353860D01*
X440016Y353956D01*
X440036Y354063D01*
Y350937D01*
D02*
G37*
G36*
X348506Y350774D02*
X348390Y350857D01*
X348268Y350931D01*
X348140Y350996D01*
X348008Y351053D01*
X347869Y351101D01*
X347725Y351140D01*
X347576Y351170D01*
X347421Y351192D01*
X347260Y351205D01*
X347094Y351209D01*
Y352209D01*
X347260Y352214D01*
X347421Y352227D01*
X347576Y352249D01*
X347725Y352279D01*
X347869Y352318D01*
X348008Y352366D01*
X348140Y352423D01*
X348268Y352488D01*
X348390Y352562D01*
X348506Y352645D01*
Y350774D01*
D02*
G37*
G36*
X317914Y353206D02*
X317830Y353118D01*
X317756Y353029D01*
X317690Y352940D01*
X317634Y352849D01*
X317586Y352758D01*
X317547Y352666D01*
X317516Y352574D01*
X317495Y352481D01*
X317483Y352386D01*
X317479Y352291D01*
X316280Y352279D01*
X316267Y351080D01*
X316173Y351076D01*
X316079Y351064D01*
X315985Y351043D01*
X315893Y351012D01*
X315801Y350974D01*
X315710Y350926D01*
X315619Y350869D01*
X315530Y350803D01*
X315441Y350729D01*
X315353Y350645D01*
X314646Y351353D01*
X314729Y351441D01*
X314803Y351530D01*
X314869Y351619D01*
X314926Y351710D01*
X314973Y351801D01*
X315012Y351893D01*
X315042Y351985D01*
X315064Y352079D01*
X315076Y352173D01*
X315080Y352268D01*
X316280Y352279D01*
X316291Y353480D01*
X316386Y353483D01*
X316480Y353495D01*
X316574Y353517D01*
X316666Y353547D01*
X316758Y353586D01*
X316849Y353633D01*
X316940Y353690D01*
X317029Y353756D01*
X317118Y353830D01*
X317207Y353914D01*
X317914Y353206D01*
D02*
G37*
G36*
X338982Y348484D02*
X339001Y348433D01*
X339031Y348388D01*
X339074Y348349D01*
X339129Y348316D01*
X339196Y348289D01*
X339276Y348268D01*
X339368Y348253D01*
X339472Y348244D01*
X339588Y348241D01*
Y347641D01*
X339472Y347638D01*
X339368Y347629D01*
X339276Y347614D01*
X339196Y347593D01*
X339129Y347566D01*
X339074Y347533D01*
X339031Y347494D01*
X339001Y347449D01*
X338982Y347398D01*
X338976Y347341D01*
Y348541D01*
X338982Y348484D01*
D02*
G37*
G36*
X315003Y349690D02*
X315014Y349574D01*
X315031Y349464D01*
X315054Y349360D01*
X315085Y349262D01*
X315122Y349170D01*
X315167Y349083D01*
X315218Y349002D01*
X315275Y348926D01*
X315340Y348857D01*
X314500Y348000D01*
X315340Y347143D01*
X315275Y347074D01*
X315218Y346998D01*
X315167Y346917D01*
X315122Y346830D01*
X315085Y346738D01*
X315054Y346640D01*
X315031Y346536D01*
X315014Y346426D01*
X315003Y346310D01*
X315000Y346189D01*
X314000D01*
X313997Y346310D01*
X313986Y346426D01*
X313969Y346536D01*
X313946Y346640D01*
X313915Y346738D01*
X313878Y346830D01*
X313833Y346917D01*
X313782Y346998D01*
X313725Y347074D01*
X313660Y347143D01*
X314500Y348000D01*
X313660Y348857D01*
X313725Y348926D01*
X313782Y349002D01*
X313833Y349083D01*
X313878Y349170D01*
X313915Y349262D01*
X313946Y349360D01*
X313969Y349464D01*
X313986Y349574D01*
X313997Y349690D01*
X314000Y349811D01*
X315000D01*
X315003Y349690D01*
D02*
G37*
G36*
X348349Y345910D02*
X348328Y345965D01*
X348292Y346014D01*
X348243Y346058D01*
X348179Y346095D01*
X348101Y346127D01*
X348008Y346153D01*
X347902Y346174D01*
X347781Y346188D01*
X347647Y346197D01*
X347498Y346200D01*
X347378Y346800D01*
X347520Y346803D01*
X347756Y346827D01*
X347849Y346847D01*
X347925Y346874D01*
X347985Y346906D01*
X348029Y346945D01*
X348056Y346989D01*
X348066Y347039D01*
X348060Y347095D01*
X348349Y345910D01*
D02*
G37*
G36*
X338043Y346459D02*
X337992Y346441D01*
X337947Y346410D01*
X337908Y346367D01*
X337875Y346312D01*
X337848Y346245D01*
X337827Y346165D01*
X337812Y346073D01*
X337803Y345969D01*
X337800Y345853D01*
X337200D01*
X337197Y345969D01*
X337188Y346073D01*
X337173Y346165D01*
X337152Y346245D01*
X337125Y346312D01*
X337092Y346367D01*
X337053Y346410D01*
X337008Y346441D01*
X336957Y346459D01*
X336900Y346465D01*
X338100D01*
X338043Y346459D01*
D02*
G37*
G36*
X376901Y346561D02*
X376914Y346532D01*
X376943Y346489D01*
X376988Y346432D01*
X377127Y346274D01*
X377596Y345790D01*
X376535Y344729D01*
X375530Y345641D01*
X376905Y346576D01*
X376901Y346561D01*
D02*
G37*
G36*
X323970Y345389D02*
X323953Y345334D01*
Y345270D01*
X323970Y345198D01*
X324004Y345117D01*
X324055Y345028D01*
X324123Y344931D01*
X324207Y344824D01*
X324428Y344587D01*
X324004Y344163D01*
X323881Y344281D01*
X323660Y344468D01*
X323563Y344536D01*
X323473Y344587D01*
X323393Y344621D01*
X323321Y344638D01*
X323257D01*
X323202Y344621D01*
X323155Y344587D01*
X324004Y345435D01*
X323970Y345389D01*
D02*
G37*
G36*
X377596Y342629D02*
X377454Y342487D01*
X376901Y341858D01*
X376905Y341843D01*
X375530Y342777D01*
X375550Y342780D01*
X375588Y342802D01*
X375644Y342844D01*
X375717Y342905D01*
X376191Y343349D01*
X376535Y343690D01*
X377596Y342629D01*
D02*
G37*
G36*
X315003Y344940D02*
X315014Y344824D01*
X315031Y344714D01*
X315054Y344610D01*
X315085Y344512D01*
X315122Y344420D01*
X315167Y344333D01*
X315218Y344252D01*
X315275Y344177D01*
X315340Y344107D01*
X314500Y343250D01*
X315340Y342393D01*
X315275Y342323D01*
X315218Y342248D01*
X315167Y342167D01*
X315122Y342080D01*
X315085Y341988D01*
X315054Y341890D01*
X315031Y341786D01*
X315014Y341676D01*
X315003Y341560D01*
X315000Y341439D01*
X314000D01*
X313997Y341560D01*
X313986Y341676D01*
X313969Y341786D01*
X313946Y341890D01*
X313915Y341988D01*
X313878Y342080D01*
X313833Y342167D01*
X313782Y342248D01*
X313725Y342323D01*
X313660Y342393D01*
X314500Y343250D01*
X313660Y344107D01*
X313725Y344177D01*
X313782Y344252D01*
X313833Y344333D01*
X313878Y344420D01*
X313915Y344512D01*
X313946Y344610D01*
X313969Y344714D01*
X313986Y344824D01*
X313997Y344940D01*
X314000Y345061D01*
X315000D01*
X315003Y344940D01*
D02*
G37*
G36*
X331333Y341428D02*
X331183Y341274D01*
X330848Y340875D01*
X330774Y340764D01*
X330720Y340663D01*
X330685Y340573D01*
X330670Y340494D01*
X330674Y340425D01*
X330697Y340368D01*
X330045Y341413D01*
X330083Y341370D01*
X330131Y341347D01*
X330190Y341342D01*
X330259Y341356D01*
X330339Y341389D01*
X330429Y341441D01*
X330529Y341511D01*
X330640Y341601D01*
X330893Y341837D01*
X331333Y341428D01*
D02*
G37*
G36*
X348166Y341117D02*
X348159Y341172D01*
X348136Y341222D01*
X348098Y341266D01*
X348045Y341304D01*
X347977Y341336D01*
X347894Y341363D01*
X347796Y341383D01*
X347683Y341398D01*
X347554Y341406D01*
X347411Y341409D01*
Y342009D01*
X347554Y342012D01*
X347796Y342036D01*
X347894Y342056D01*
X347977Y342083D01*
X348045Y342115D01*
X348098Y342153D01*
X348136Y342197D01*
X348159Y342246D01*
X348166Y342302D01*
Y341117D01*
D02*
G37*
G36*
X338994Y339602D02*
X339012Y339551D01*
X339042Y339506D01*
X339084Y339467D01*
X339138Y339434D01*
X339204Y339407D01*
X339282Y339386D01*
X339372Y339371D01*
X339474Y339362D01*
X339588Y339359D01*
Y338759D01*
X339474Y338756D01*
X339372Y338747D01*
X339282Y338732D01*
X339204Y338711D01*
X339138Y338684D01*
X339084Y338651D01*
X339042Y338612D01*
X339012Y338567D01*
X338994Y338516D01*
X338988Y338459D01*
Y339659D01*
X338994Y339602D01*
D02*
G37*
G36*
X315003Y340190D02*
X315014Y340074D01*
X315031Y339964D01*
X315054Y339860D01*
X315085Y339762D01*
X315122Y339670D01*
X315167Y339583D01*
X315218Y339502D01*
X315275Y339426D01*
X315340Y339357D01*
X314500Y338500D01*
X315340Y337643D01*
X315275Y337574D01*
X315218Y337498D01*
X315167Y337417D01*
X315122Y337330D01*
X315085Y337238D01*
X315054Y337140D01*
X315031Y337036D01*
X315014Y336926D01*
X315003Y336810D01*
X315000Y336689D01*
X314000D01*
X313997Y336810D01*
X313986Y336926D01*
X313969Y337036D01*
X313946Y337140D01*
X313915Y337238D01*
X313878Y337330D01*
X313833Y337417D01*
X313782Y337498D01*
X313725Y337574D01*
X313660Y337643D01*
X314500Y338500D01*
X313660Y339357D01*
X313725Y339426D01*
X313782Y339502D01*
X313833Y339583D01*
X313878Y339670D01*
X313915Y339762D01*
X313946Y339860D01*
X313969Y339964D01*
X313986Y340074D01*
X313997Y340190D01*
X314000Y340311D01*
X315000D01*
X315003Y340190D01*
D02*
G37*
G36*
X315411Y335801D02*
X315500Y335726D01*
X315590Y335661D01*
X315680Y335604D01*
X315771Y335556D01*
X315863Y335517D01*
X315956Y335487D01*
X316049Y335466D01*
X316143Y335453D01*
X316238Y335450D01*
X315050Y334262D01*
X315047Y334357D01*
X315034Y334451D01*
X315013Y334544D01*
X314983Y334637D01*
X314944Y334729D01*
X314896Y334820D01*
X314839Y334910D01*
X314774Y335000D01*
X314699Y335089D01*
X314616Y335177D01*
X315323Y335884D01*
X315411Y335801D01*
D02*
G37*
G36*
X317453Y334143D02*
X317466Y334049D01*
X317487Y333956D01*
X317517Y333863D01*
X317556Y333771D01*
X317604Y333680D01*
X317661Y333590D01*
X317726Y333500D01*
X317801Y333411D01*
X317884Y333323D01*
X317177Y332616D01*
X317089Y332699D01*
X317000Y332774D01*
X316910Y332839D01*
X316820Y332896D01*
X316729Y332944D01*
X316637Y332983D01*
X316544Y333013D01*
X316451Y333034D01*
X316357Y333047D01*
X316262Y333050D01*
X317450Y334238D01*
X317453Y334143D01*
D02*
G37*
G36*
X332427Y333275D02*
X332502Y333218D01*
X332583Y333167D01*
X332670Y333122D01*
X332762Y333085D01*
X332860Y333054D01*
X332964Y333031D01*
X333074Y333014D01*
X333190Y333003D01*
X333311Y333000D01*
Y332000D01*
X333190Y331997D01*
X333074Y331986D01*
X332964Y331969D01*
X332860Y331946D01*
X332762Y331915D01*
X332670Y331878D01*
X332583Y331833D01*
X332502Y331782D01*
X332427Y331725D01*
X332357Y331660D01*
X331500Y332500D01*
X332357Y333340D01*
X332427Y333275D01*
D02*
G37*
G36*
X331500Y332500D02*
X330643Y331660D01*
X330574Y331725D01*
X330498Y331782D01*
X330417Y331833D01*
X330330Y331878D01*
X330238Y331915D01*
X330140Y331946D01*
X330036Y331969D01*
X329926Y331986D01*
X329810Y331997D01*
X329689Y332000D01*
Y333000D01*
X329810Y333003D01*
X329926Y333014D01*
X330036Y333031D01*
X330140Y333054D01*
X330238Y333085D01*
X330330Y333122D01*
X330417Y333167D01*
X330498Y333218D01*
X330574Y333275D01*
X330643Y333340D01*
X331500Y332500D01*
D02*
G37*
G36*
X328456Y333275D02*
X328531Y333218D01*
X328612Y333167D01*
X328699Y333122D01*
X328792Y333085D01*
X328890Y333054D01*
X328994Y333031D01*
X329104Y333014D01*
X329219Y333003D01*
X329340Y333000D01*
Y332000D01*
X329219Y331997D01*
X329104Y331986D01*
X328994Y331969D01*
X328890Y331946D01*
X328792Y331915D01*
X328699Y331878D01*
X328612Y331833D01*
X328531Y331782D01*
X328456Y331725D01*
X328386Y331660D01*
X327530Y332500D01*
X328386Y333340D01*
X328456Y333275D01*
D02*
G37*
G36*
X327530Y332500D02*
X326673Y331660D01*
X326603Y331725D01*
X326528Y331782D01*
X326447Y331833D01*
X326360Y331878D01*
X326268Y331915D01*
X326169Y331946D01*
X326065Y331969D01*
X325955Y331986D01*
X325840Y331997D01*
X325719Y332000D01*
Y333000D01*
X325840Y333003D01*
X325955Y333014D01*
X326065Y333031D01*
X326169Y333054D01*
X326268Y333085D01*
X326360Y333122D01*
X326447Y333167D01*
X326528Y333218D01*
X326603Y333275D01*
X326673Y333340D01*
X327530Y332500D01*
D02*
G37*
G36*
X324427Y333275D02*
X324502Y333218D01*
X324583Y333167D01*
X324670Y333122D01*
X324762Y333085D01*
X324860Y333054D01*
X324964Y333031D01*
X325074Y333014D01*
X325190Y333003D01*
X325311Y333000D01*
Y332000D01*
X325190Y331997D01*
X325074Y331986D01*
X324964Y331969D01*
X324860Y331946D01*
X324762Y331915D01*
X324670Y331878D01*
X324583Y331833D01*
X324502Y331782D01*
X324427Y331725D01*
X324357Y331660D01*
X323500Y332500D01*
X324357Y333340D01*
X324427Y333275D01*
D02*
G37*
G36*
X323500Y332500D02*
X322643Y331660D01*
X322573Y331725D01*
X322498Y331782D01*
X322417Y331833D01*
X322330Y331878D01*
X322238Y331915D01*
X322140Y331946D01*
X322036Y331969D01*
X321926Y331986D01*
X321810Y331997D01*
X321689Y332000D01*
Y333000D01*
X321810Y333003D01*
X321926Y333014D01*
X322036Y333031D01*
X322140Y333054D01*
X322238Y333085D01*
X322330Y333122D01*
X322417Y333167D01*
X322498Y333218D01*
X322573Y333275D01*
X322643Y333340D01*
X323500Y332500D01*
D02*
G37*
G36*
X320427Y333275D02*
X320502Y333218D01*
X320583Y333167D01*
X320670Y333122D01*
X320762Y333085D01*
X320860Y333054D01*
X320964Y333031D01*
X321074Y333014D01*
X321190Y333003D01*
X321311Y333000D01*
Y332000D01*
X321190Y331997D01*
X321074Y331986D01*
X320964Y331969D01*
X320860Y331946D01*
X320762Y331915D01*
X320670Y331878D01*
X320583Y331833D01*
X320502Y331782D01*
X320427Y331725D01*
X320357Y331660D01*
Y333340D01*
X320427Y333275D01*
D02*
G37*
G36*
X336024Y331500D02*
X336014Y331595D01*
X335983Y331680D01*
X335933Y331755D01*
X335862Y331820D01*
X335771Y331875D01*
X335660Y331920D01*
X335528Y331955D01*
X335376Y331980D01*
X335204Y331995D01*
X335012Y332000D01*
Y333000D01*
X335204Y333005D01*
X335376Y333020D01*
X335528Y333045D01*
X335660Y333080D01*
X335771Y333125D01*
X335862Y333180D01*
X335933Y333245D01*
X335983Y333320D01*
X336014Y333405D01*
X336024Y333500D01*
Y331500D01*
D02*
G37*
G36*
X308571Y312142D02*
X308532Y312074D01*
X308515Y311996D01*
X308519Y311909D01*
X308546Y311813D01*
X308594Y311707D01*
X308664Y311593D01*
X308757Y311469D01*
X308871Y311336D01*
X309007Y311193D01*
X308261Y310525D01*
X308107Y310673D01*
X307825Y310904D01*
X307698Y310988D01*
X307579Y311050D01*
X307469Y311091D01*
X307367Y311111D01*
X307274Y311110D01*
X307190Y311088D01*
X307114Y311044D01*
X308632Y312202D01*
X308571Y312142D01*
D02*
G37*
G36*
X309031Y308886D02*
X308895Y308744D01*
X308781Y308612D01*
X308689Y308488D01*
X308619Y308373D01*
X308570Y308268D01*
X308543Y308172D01*
X308538Y308085D01*
X308554Y308007D01*
X308592Y307938D01*
X308652Y307878D01*
X307155Y309048D01*
X307229Y309003D01*
X307312Y308981D01*
X307404Y308979D01*
X307505Y308999D01*
X307614Y309039D01*
X307732Y309102D01*
X307859Y309185D01*
X307995Y309289D01*
X308139Y309415D01*
X308292Y309562D01*
X309031Y308886D01*
D02*
G37*
G36*
X414122Y307797D02*
X414015Y307852D01*
X413904Y307885D01*
X413789Y307897D01*
X413668Y307888D01*
X413544Y307857D01*
X413416Y307805D01*
X413283Y307732D01*
X413146Y307638D01*
X413004Y307522D01*
X412858Y307384D01*
X411798Y308445D01*
X411969Y308624D01*
X412249Y308962D01*
X412357Y309122D01*
X412444Y309276D01*
X412510Y309422D01*
X412555Y309563D01*
X412578Y309697D01*
X412580Y309825D01*
X412562Y309946D01*
X414122Y307797D01*
D02*
G37*
G36*
X413004Y306208D02*
X413146Y306092D01*
X413283Y305997D01*
X413416Y305924D01*
X413544Y305872D01*
X413668Y305841D01*
X413789Y305832D01*
X413904Y305844D01*
X414015Y305878D01*
X414122Y305932D01*
X412562Y303783D01*
X412580Y303905D01*
X412578Y304032D01*
X412555Y304166D01*
X412510Y304307D01*
X412444Y304454D01*
X412357Y304607D01*
X412249Y304767D01*
X412120Y304933D01*
X411969Y305105D01*
X411798Y305284D01*
X412858Y306345D01*
X413004Y306208D01*
D02*
G37*
G36*
X416751Y289534D02*
X416581Y289474D01*
X416431Y289374D01*
X416301Y289234D01*
X416191Y289054D01*
X416101Y288834D01*
X416031Y288574D01*
X415981Y288274D01*
X415951Y287934D01*
X415941Y287554D01*
X413941D01*
X413931Y287934D01*
X413901Y288274D01*
X413851Y288574D01*
X413781Y288834D01*
X413691Y289054D01*
X413581Y289234D01*
X413451Y289374D01*
X413301Y289474D01*
X413131Y289534D01*
X412941Y289554D01*
X416941D01*
X416751Y289534D01*
D02*
G37*
G36*
X315405Y284955D02*
X315320Y284925D01*
X315245Y284874D01*
X315180Y284803D01*
X315125Y284712D01*
X315080Y284601D01*
X315045Y284469D01*
X315020Y284317D01*
X315005Y284145D01*
X315000Y283953D01*
X314000D01*
X313995Y284145D01*
X313980Y284317D01*
X313955Y284469D01*
X313920Y284601D01*
X313875Y284712D01*
X313820Y284803D01*
X313755Y284874D01*
X313680Y284925D01*
X313595Y284955D01*
X313500Y284965D01*
X315500D01*
X315405Y284955D01*
D02*
G37*
G36*
X315003Y283690D02*
X315014Y283574D01*
X315031Y283464D01*
X315054Y283360D01*
X315085Y283262D01*
X315122Y283170D01*
X315167Y283083D01*
X315218Y283002D01*
X315275Y282927D01*
X315340Y282857D01*
X313660D01*
X313725Y282927D01*
X313782Y283002D01*
X313833Y283083D01*
X313878Y283170D01*
X313915Y283262D01*
X313946Y283360D01*
X313969Y283464D01*
X313986Y283574D01*
X313997Y283690D01*
X314000Y283811D01*
X315000D01*
X315003Y283690D01*
D02*
G37*
G36*
X425216Y275099D02*
X425121Y275090D01*
X425036Y275061D01*
X424962Y275012D01*
X424896Y274941D01*
X424841Y274851D01*
X424796Y274739D01*
X424761Y274607D01*
X424736Y274454D01*
X424721Y274281D01*
X424717Y274087D01*
X423716D01*
X423711Y274285D01*
X423697Y274462D01*
X423672Y274619D01*
X423637Y274755D01*
X423592Y274870D01*
X423537Y274965D01*
X423472Y275039D01*
X423397Y275093D01*
X423312Y275126D01*
X423217Y275138D01*
X425216Y275099D01*
D02*
G37*
G36*
X415946Y272108D02*
X416019Y271208D01*
X416063Y270988D01*
X416117Y270808D01*
X416180Y270668D01*
X416253Y270568D01*
X416336Y270508D01*
X416429Y270488D01*
X413453D01*
X413546Y270508D01*
X413629Y270568D01*
X413702Y270668D01*
X413765Y270808D01*
X413819Y270988D01*
X413863Y271208D01*
X413897Y271468D01*
X413936Y272108D01*
X413941Y272488D01*
X415941D01*
X415946Y272108D01*
D02*
G37*
G36*
X423254Y270488D02*
X423055Y270282D01*
X422741Y269913D01*
X422627Y269750D01*
X422541Y269601D01*
X422483Y269467D01*
X422454Y269347D01*
X422453Y269242D01*
X422480Y269150D01*
X422535Y269074D01*
X421133Y270476D01*
X421210Y270421D01*
X421301Y270394D01*
X421406Y270395D01*
X421526Y270424D01*
X421660Y270482D01*
X421809Y270568D01*
X421972Y270682D01*
X422149Y270825D01*
X422547Y271195D01*
X423254Y270488D01*
D02*
G37*
G36*
X416342Y267492D02*
X416264Y267432D01*
X416195Y267332D01*
X416136Y267192D01*
X416085Y267012D01*
X416044Y266792D01*
X416012Y266532D01*
X415975Y265892D01*
X415971Y265512D01*
X413971D01*
X413965Y265892D01*
X413888Y266792D01*
X413841Y267012D01*
X413784Y267192D01*
X413717Y267332D01*
X413639Y267432D01*
X413551Y267492D01*
X413453Y267512D01*
X416429D01*
X416342Y267492D01*
D02*
G37*
G36*
X415978Y264858D02*
X416040Y264218D01*
X416093Y263958D01*
X416162Y263738D01*
X416247Y263558D01*
X416347Y263418D01*
X416462Y263318D01*
X416592Y263258D01*
X416738Y263238D01*
X413262D01*
X413397Y263258D01*
X413517Y263318D01*
X413623Y263418D01*
X413715Y263558D01*
X413793Y263738D01*
X413857Y263958D01*
X413907Y264218D01*
X413942Y264518D01*
X413963Y264858D01*
X413971Y265238D01*
X415971D01*
X415978Y264858D01*
D02*
G37*
G36*
X423747Y262977D02*
X423808Y262807D01*
X423909Y262657D01*
X424050Y262527D01*
X424231Y262417D01*
X424452Y262327D01*
X424713Y262257D01*
X425015Y262207D01*
X425356Y262177D01*
X425738Y262167D01*
Y260167D01*
X425358Y260163D01*
X424458Y260102D01*
X424238Y260066D01*
X424058Y260021D01*
X423918Y259968D01*
X423818Y259908D01*
X423758Y259839D01*
X423738Y259762D01*
X423726Y263167D01*
X423747Y262977D01*
D02*
G37*
G36*
X440036Y259604D02*
X440016Y259711D01*
X439956Y259806D01*
X439856Y259891D01*
X439716Y259964D01*
X439536Y260026D01*
X439316Y260077D01*
X439056Y260116D01*
X438756Y260144D01*
X438036Y260167D01*
Y262167D01*
X438416Y262172D01*
X439056Y262217D01*
X439316Y262257D01*
X439536Y262307D01*
X439716Y262369D01*
X439856Y262442D01*
X439956Y262527D01*
X440016Y262622D01*
X440036Y262730D01*
Y259604D01*
D02*
G37*
G36*
X414122Y214833D02*
X414015Y214888D01*
X413904Y214921D01*
X413789Y214933D01*
X413668Y214924D01*
X413544Y214894D01*
X413416Y214842D01*
X413283Y214768D01*
X413146Y214674D01*
X413004Y214558D01*
X412858Y214421D01*
X411798Y215481D01*
X411969Y215660D01*
X412249Y215999D01*
X412357Y216158D01*
X412444Y216312D01*
X412510Y216459D01*
X412555Y216599D01*
X412578Y216733D01*
X412580Y216861D01*
X412562Y216982D01*
X414122Y214833D01*
D02*
G37*
G36*
X413004Y213244D02*
X413146Y213128D01*
X413283Y213033D01*
X413416Y212960D01*
X413544Y212908D01*
X413668Y212877D01*
X413789Y212868D01*
X413904Y212880D01*
X414015Y212914D01*
X414122Y212969D01*
X412562Y210820D01*
X412580Y210941D01*
X412578Y211068D01*
X412555Y211202D01*
X412510Y211343D01*
X412444Y211490D01*
X412357Y211643D01*
X412249Y211803D01*
X412120Y211969D01*
X411969Y212141D01*
X411798Y212320D01*
X412858Y213381D01*
X413004Y213244D01*
D02*
G37*
G36*
X417251Y196570D02*
X417081Y196510D01*
X416931Y196410D01*
X416801Y196270D01*
X416691Y196090D01*
X416601Y195870D01*
X416531Y195610D01*
X416481Y195310D01*
X416451Y194970D01*
X416441Y194590D01*
X414441D01*
X414431Y194970D01*
X414401Y195310D01*
X414351Y195610D01*
X414281Y195870D01*
X414191Y196090D01*
X414081Y196270D01*
X413951Y196410D01*
X413801Y196510D01*
X413631Y196570D01*
X413441Y196590D01*
X417441D01*
X417251Y196570D01*
D02*
G37*
G36*
X425216Y182135D02*
X425121Y182127D01*
X425036Y182098D01*
X424962Y182048D01*
X424896Y181978D01*
X424841Y181887D01*
X424796Y181775D01*
X424761Y181643D01*
X424736Y181490D01*
X424721Y181317D01*
X424717Y181123D01*
X423716D01*
X423711Y181321D01*
X423697Y181498D01*
X423672Y181655D01*
X423637Y181791D01*
X423592Y181906D01*
X423537Y182001D01*
X423472Y182076D01*
X423397Y182129D01*
X423312Y182162D01*
X423217Y182174D01*
X425216Y182135D01*
D02*
G37*
G36*
X416446Y180108D02*
X416519Y179208D01*
X416563Y178988D01*
X416617Y178808D01*
X416680Y178668D01*
X416753Y178568D01*
X416836Y178508D01*
X416929Y178488D01*
X413953D01*
X414046Y178508D01*
X414129Y178568D01*
X414202Y178668D01*
X414265Y178808D01*
X414319Y178988D01*
X414363Y179208D01*
X414397Y179468D01*
X414436Y180108D01*
X414441Y180488D01*
X416441D01*
X416446Y180108D01*
D02*
G37*
G36*
X423754Y178488D02*
X423556Y178283D01*
X423245Y177915D01*
X423132Y177753D01*
X423047Y177604D01*
X422991Y177470D01*
X422962Y177350D01*
Y177243D01*
X422991Y177152D01*
X423047Y177074D01*
X421633Y178488D01*
X421711Y178431D01*
X421803Y178403D01*
X421909D01*
X422029Y178431D01*
X422163Y178488D01*
X422312Y178573D01*
X422474Y178686D01*
X422651Y178827D01*
X423047Y179195D01*
X423754Y178488D01*
D02*
G37*
G36*
X416842Y175492D02*
X416764Y175432D01*
X416695Y175332D01*
X416636Y175192D01*
X416585Y175012D01*
X416544Y174792D01*
X416512Y174532D01*
X416475Y173892D01*
X416470Y173512D01*
X414470D01*
X414465Y173892D01*
X414388Y174792D01*
X414341Y175012D01*
X414284Y175192D01*
X414217Y175332D01*
X414139Y175432D01*
X414051Y175492D01*
X413953Y175512D01*
X416929D01*
X416842Y175492D01*
D02*
G37*
G36*
X416478Y172358D02*
X416539Y171718D01*
X416593Y171458D01*
X416662Y171238D01*
X416747Y171058D01*
X416847Y170918D01*
X416962Y170818D01*
X417092Y170758D01*
X417238Y170738D01*
X413762D01*
X413897Y170758D01*
X414017Y170818D01*
X414123Y170918D01*
X414215Y171058D01*
X414293Y171238D01*
X414357Y171458D01*
X414407Y171718D01*
X414442Y172018D01*
X414463Y172358D01*
X414470Y172738D01*
X416470D01*
X416478Y172358D01*
D02*
G37*
G36*
X424247Y170310D02*
X424308Y170140D01*
X424409Y169990D01*
X424550Y169860D01*
X424731Y169750D01*
X424952Y169660D01*
X425213Y169590D01*
X425515Y169540D01*
X425856Y169510D01*
X426238Y169500D01*
Y167500D01*
X425858Y167498D01*
X424558Y167414D01*
X424418Y167383D01*
X424318Y167348D01*
X424258Y167307D01*
X424238Y167262D01*
X424226Y170500D01*
X424247Y170310D01*
D02*
G37*
G36*
X440036Y166937D02*
X440016Y167044D01*
X439956Y167140D01*
X439856Y167224D01*
X439716Y167297D01*
X439536Y167359D01*
X439316Y167410D01*
X439056Y167449D01*
X438756Y167478D01*
X438036Y167500D01*
Y169500D01*
X438416Y169506D01*
X439056Y169551D01*
X439316Y169590D01*
X439536Y169641D01*
X439716Y169703D01*
X439856Y169776D01*
X439956Y169860D01*
X440016Y169956D01*
X440036Y170063D01*
Y166937D01*
D02*
G37*
G36*
X414122Y121869D02*
X414015Y121924D01*
X413904Y121957D01*
X413789Y121969D01*
X413668Y121960D01*
X413544Y121930D01*
X413416Y121878D01*
X413283Y121805D01*
X413146Y121710D01*
X413004Y121594D01*
X412858Y121457D01*
X411798Y122517D01*
X411969Y122696D01*
X412249Y123035D01*
X412357Y123195D01*
X412444Y123348D01*
X412510Y123495D01*
X412555Y123635D01*
X412578Y123769D01*
X412580Y123897D01*
X412562Y124018D01*
X414122Y121869D01*
D02*
G37*
G36*
X413004Y120280D02*
X413146Y120164D01*
X413283Y120070D01*
X413416Y119996D01*
X413544Y119944D01*
X413668Y119914D01*
X413789Y119904D01*
X413904Y119917D01*
X414015Y119950D01*
X414122Y120005D01*
X412562Y117856D01*
X412580Y117977D01*
X412578Y118105D01*
X412555Y118239D01*
X412510Y118379D01*
X412444Y118526D01*
X412357Y118679D01*
X412249Y118839D01*
X412120Y119005D01*
X411969Y119178D01*
X411798Y119357D01*
X412858Y120417D01*
X413004Y120280D01*
D02*
G37*
G36*
X417251Y103606D02*
X417081Y103546D01*
X416931Y103446D01*
X416801Y103306D01*
X416691Y103126D01*
X416601Y102906D01*
X416531Y102646D01*
X416481Y102346D01*
X416451Y102006D01*
X416441Y101626D01*
X414441D01*
X414431Y102006D01*
X414401Y102346D01*
X414351Y102646D01*
X414281Y102906D01*
X414191Y103126D01*
X414081Y103306D01*
X413951Y103446D01*
X413801Y103546D01*
X413631Y103606D01*
X413441Y103626D01*
X417441D01*
X417251Y103606D01*
D02*
G37*
G36*
X425216Y89171D02*
X425121Y89163D01*
X425036Y89134D01*
X424962Y89084D01*
X424896Y89014D01*
X424841Y88923D01*
X424796Y88811D01*
X424761Y88679D01*
X424736Y88527D01*
X424721Y88353D01*
X424717Y88159D01*
X423716D01*
X423711Y88357D01*
X423697Y88534D01*
X423672Y88691D01*
X423637Y88827D01*
X423592Y88943D01*
X423537Y89038D01*
X423472Y89112D01*
X423397Y89165D01*
X423312Y89198D01*
X423217Y89210D01*
X425216Y89171D01*
D02*
G37*
G36*
X416446Y86608D02*
X416519Y85708D01*
X416563Y85488D01*
X416617Y85308D01*
X416680Y85168D01*
X416753Y85068D01*
X416836Y85008D01*
X416929Y84988D01*
X413953D01*
X414046Y85008D01*
X414129Y85068D01*
X414202Y85168D01*
X414265Y85308D01*
X414319Y85488D01*
X414363Y85708D01*
X414397Y85968D01*
X414436Y86608D01*
X414441Y86988D01*
X416441D01*
X416446Y86608D01*
D02*
G37*
G36*
X423754Y84988D02*
X423556Y84783D01*
X423245Y84415D01*
X423132Y84253D01*
X423047Y84104D01*
X422991Y83970D01*
X422962Y83850D01*
Y83744D01*
X422991Y83652D01*
X423047Y83574D01*
X421633Y84988D01*
X421711Y84931D01*
X421803Y84903D01*
X421909D01*
X422029Y84931D01*
X422163Y84988D01*
X422312Y85073D01*
X422474Y85186D01*
X422651Y85327D01*
X423047Y85695D01*
X423754Y84988D01*
D02*
G37*
G36*
X416842Y81992D02*
X416764Y81932D01*
X416695Y81832D01*
X416636Y81692D01*
X416585Y81512D01*
X416544Y81292D01*
X416512Y81032D01*
X416475Y80392D01*
X416470Y80012D01*
X414470D01*
X414465Y80392D01*
X414388Y81292D01*
X414341Y81512D01*
X414284Y81692D01*
X414217Y81832D01*
X414139Y81932D01*
X414051Y81992D01*
X413953Y82012D01*
X416929D01*
X416842Y81992D01*
D02*
G37*
G36*
X416478Y78358D02*
X416539Y77718D01*
X416593Y77458D01*
X416662Y77238D01*
X416747Y77058D01*
X416847Y76918D01*
X416962Y76818D01*
X417092Y76758D01*
X417238Y76738D01*
X413762D01*
X413897Y76758D01*
X414017Y76818D01*
X414123Y76918D01*
X414215Y77058D01*
X414293Y77238D01*
X414357Y77458D01*
X414407Y77718D01*
X414442Y78018D01*
X414463Y78358D01*
X414470Y78738D01*
X416470D01*
X416478Y78358D01*
D02*
G37*
G36*
X469000Y439000D02*
Y78000D01*
X469339Y77661D01*
X469173Y77173D01*
X467500Y75500D01*
X460235D01*
X459000Y76735D01*
Y433500D01*
X449000Y443500D01*
X381500Y443500D01*
X377500Y439500D01*
X362000D01*
X359000Y442500D01*
Y449000D01*
X362500Y452500D01*
X455500D01*
X469000Y439000D01*
D02*
G37*
G36*
X449000Y432500D02*
X449000Y73500D01*
Y72500D01*
X448000Y70500D01*
X441000D01*
X439000Y72500D01*
X432750D01*
Y72250D01*
X427000Y66500D01*
X386000D01*
X319000Y133500D01*
Y288000D01*
X317000Y290000D01*
X310000D01*
X308500Y291500D01*
X300500D01*
X299500Y292500D01*
Y298500D01*
X302000Y301000D01*
X325000D01*
X329255Y296745D01*
Y137245D01*
X394500Y72000D01*
X420000D01*
X420500Y72500D01*
Y79000D01*
X421500Y80000D01*
X439000D01*
Y166869D01*
X443567D01*
X444191Y166993D01*
X444721Y167347D01*
X445074Y167876D01*
X445198Y168500D01*
X445074Y169124D01*
X444721Y169653D01*
X444191Y170007D01*
X443567Y170131D01*
X439000D01*
Y259535D01*
X443567D01*
X444191Y259660D01*
X444721Y260013D01*
X445074Y260542D01*
X445198Y261167D01*
X445074Y261791D01*
X444721Y262320D01*
X444191Y262674D01*
X443567Y262798D01*
X439000D01*
Y350869D01*
X443567D01*
X444191Y350993D01*
X444721Y351346D01*
X445074Y351876D01*
X445198Y352500D01*
X445074Y353124D01*
X444721Y353654D01*
X444191Y354007D01*
X443567Y354131D01*
X439000D01*
Y434000D01*
X437000Y436000D01*
X392500D01*
X388000Y431500D01*
X388000Y424000D01*
X387000Y423000D01*
X383500D01*
X382500Y424000D01*
X382500Y431610D01*
X382425D01*
Y431228D01*
X381963Y431037D01*
X377500Y435500D01*
X343000D01*
X338500Y431000D01*
Y428106D01*
X337689D01*
Y424106D01*
X336689D01*
Y428106D01*
X336000D01*
Y428788D01*
X336040Y428804D01*
X336131Y428895D01*
X336250Y428945D01*
X336582Y429277D01*
X336632Y429396D01*
X336723Y429488D01*
X336903Y429922D01*
Y430051D01*
X336952Y430170D01*
Y430640D01*
X336903Y430760D01*
Y430889D01*
X336723Y431323D01*
X336632Y431414D01*
X336582Y431534D01*
X336250Y431866D01*
X336131Y431915D01*
X336040Y432007D01*
X336000Y432023D01*
Y432500D01*
X341500Y438000D01*
X382500D01*
X386500Y442000D01*
X439500D01*
X449000Y432500D01*
D02*
G37*
%LPC*%
G36*
X385000Y428189D02*
X384571Y428103D01*
X384207Y427860D01*
X383640Y427293D01*
X383397Y426929D01*
X383312Y426500D01*
X383397Y426071D01*
X383640Y425707D01*
X384004Y425464D01*
X384433Y425378D01*
X384862Y425464D01*
X385226Y425707D01*
X385793Y426274D01*
X386036Y426638D01*
X386122Y427067D01*
X386036Y427496D01*
X385793Y427860D01*
X385429Y428103D01*
X385000Y428189D01*
D02*
G37*
G36*
X314633Y294324D02*
X314009Y294199D01*
X313480Y293846D01*
X313347Y293713D01*
X312993Y293183D01*
X312869Y292559D01*
X312993Y291935D01*
X313347Y291406D01*
X313876Y291052D01*
X314500Y290928D01*
X315124Y291052D01*
X315653Y291406D01*
X315787Y291539D01*
X316140Y292068D01*
X316265Y292692D01*
X316140Y293317D01*
X315787Y293846D01*
X315258Y294199D01*
X314633Y294324D01*
D02*
G37*
%LPD*%
D14*
X360635Y330020D02*
G03*
X361955Y331340I0J1320D01*
G01*
X360634Y330020D02*
G03*
X359314Y328700I0J-1320D01*
G01*
Y326940D02*
G03*
X360634Y325620I1320J0D01*
G01*
X361955Y324300D02*
G03*
X360635Y325620I-1320J0D01*
G01*
Y321220D02*
G03*
X361955Y322540I0J1320D01*
G01*
X360634Y321220D02*
G03*
X359314Y319900I0J-1320D01*
G01*
Y318140D02*
G03*
X360634Y316820I1320J0D01*
G01*
X361955Y315500D02*
G03*
X360635Y316820I-1320J0D01*
G01*
X340800Y394300D02*
X347500Y401000D01*
X340800Y375970D02*
Y394300D01*
X347500Y401000D02*
Y424091D01*
X342400Y393637D02*
X349453Y400690D01*
X342400Y376633D02*
Y393637D01*
X349453Y400690D02*
Y424106D01*
Y432047D01*
X347485Y424106D02*
X347500Y424091D01*
X342400Y376633D02*
X344024Y375009D01*
X421500Y261500D02*
X421833Y261167D01*
X343524Y429976D02*
X343548Y429952D01*
X334040Y424106D02*
Y428040D01*
X329491Y428437D02*
X329680Y428626D01*
X333454D01*
X334040Y428040D01*
X324500Y416000D02*
X329941D01*
X421559Y83500D02*
X424217Y86158D01*
Y92618D01*
X426669Y95071D01*
X421559Y177000D02*
X424217Y179657D01*
Y185582D01*
X426669Y188035D01*
X420559Y360500D02*
Y367879D01*
X426642Y373962D01*
X426669D01*
X421059Y269000D02*
X424217Y272158D01*
Y278546D01*
X426669Y280998D01*
X314500Y282000D02*
Y286441D01*
X319608Y361000D02*
X323941D01*
X319546Y361061D02*
X319608Y361000D01*
X323941D02*
Y369000D01*
X344895Y362605D02*
X345791Y361709D01*
X351900D01*
X323941Y377000D02*
Y387559D01*
X304000Y392000D02*
X319500D01*
X323941Y387559D01*
X298500Y381059D02*
Y386501D01*
X304000Y392000D01*
X334600Y370900D02*
Y375459D01*
X338791Y366709D02*
X351900D01*
X334600Y370900D02*
X338791Y366709D01*
X345929Y356709D02*
X351900D01*
X333638Y369000D02*
X345929Y356709D01*
X330059Y369000D02*
X333638D01*
X347922Y375009D02*
X348507Y375595D01*
Y375856D01*
X349361Y376709D01*
X348507Y372563D02*
Y372824D01*
X343361Y373409D02*
X347922D01*
X344024Y375009D02*
X347922D01*
Y373409D02*
X348507Y372824D01*
X340800Y375970D02*
X343361Y373409D01*
X349361Y376709D02*
X354439D01*
X348507Y372563D02*
X349361Y371709D01*
X354439D01*
X330059Y377000D02*
X333059D01*
X334600Y375459D01*
X414441Y360500D02*
X415000Y359941D01*
X422500Y169000D02*
X423000Y168500D01*
X421500Y353000D02*
X422000Y352500D01*
X298500Y374941D02*
X299000Y374442D01*
X305001Y374442D02*
X306000Y375441D01*
X299000Y374442D02*
X302251D01*
X302251Y374442D02*
X305001D01*
X302251Y374442D02*
X302251Y374442D01*
X308000Y387000D02*
X313000D01*
X314500Y377500D02*
Y385500D01*
X313000Y387000D02*
X314500Y385500D01*
Y377500D02*
X319000Y373000D01*
X328500D01*
X330059Y374559D02*
Y377000D01*
X328500Y373000D02*
X330059Y374559D01*
X306000Y385000D02*
X308000Y387000D01*
X306000Y381059D02*
Y385000D01*
X361955Y331340D02*
Y336000D01*
X360634Y330020D02*
X360635D01*
X359314Y326940D02*
Y328700D01*
X360634Y325620D02*
X360635D01*
X361955Y322540D02*
Y324300D01*
X360634Y321220D02*
X360635D01*
X359314Y318140D02*
Y319900D01*
X360634Y316820D02*
X360635D01*
X361955Y315000D02*
Y315500D01*
Y336000D02*
Y371546D01*
Y312455D02*
Y315000D01*
X360340Y310840D02*
X361955Y312455D01*
X363555Y311792D02*
Y372945D01*
X308653Y310840D02*
X360340D01*
X361003Y309240D02*
X363555Y311792D01*
X308677Y309240D02*
X361003D01*
X305504Y313989D02*
X308653Y310840D01*
X305553Y306115D02*
X308677Y309240D01*
X304874Y313989D02*
X305504D01*
X304874Y306115D02*
X305553D01*
X356139Y373409D02*
X360091D01*
X361955Y371546D01*
X356139Y375009D02*
X361491D01*
X363555Y372945D01*
X354439Y376709D02*
X356139Y375009D01*
X354439Y371709D02*
X356139Y373409D01*
X348500Y433000D02*
X349453Y432047D01*
X346500Y433000D02*
X348500D01*
X345500Y432000D02*
X346500Y433000D01*
X345516Y424106D02*
Y431984D01*
X345500Y432000D02*
X345516Y431984D01*
X347504Y429957D02*
X347524Y429976D01*
X347504Y424126D02*
Y429957D01*
X343548Y424106D02*
Y429952D01*
X336059Y407559D02*
Y416000D01*
X330059Y401559D02*
X336059Y407559D01*
X330059Y377000D02*
Y401559D01*
X316250Y334250D02*
X318000Y332500D01*
X314500Y336000D02*
X316250Y334250D01*
X337059Y332500D02*
X337500Y332941D01*
X318000Y332500D02*
X337059D01*
X314500Y336000D02*
Y350500D01*
X318059Y354059D02*
X337500D01*
X314500Y350500D02*
X318059Y354059D01*
X330059Y361000D02*
X337500D01*
X346791Y351709D02*
X351900D01*
X337500Y361000D02*
X346791Y351709D01*
X336000Y416059D02*
X336059Y416000D01*
X336000Y416059D02*
Y419000D01*
X337189Y420189D02*
Y424106D01*
X336000Y419000D02*
X337189Y420189D01*
X384433Y426500D02*
X385000Y427067D01*
D15*
X337500Y339059D02*
X340059D01*
X342709Y341709D02*
X351900D01*
X340059Y339059D02*
X342709Y341709D01*
X351691Y346500D02*
X351900Y346709D01*
X342500Y346500D02*
X351691D01*
X337500Y347941D02*
X341059D01*
X342500Y346500D01*
X335584Y342475D02*
X337500Y340559D01*
X331955Y342475D02*
X335584D01*
X328346Y338866D02*
Y339063D01*
X330409Y341125D01*
X330606D01*
X331955Y342475D01*
X321654Y346937D02*
X324916Y343675D01*
X335675D01*
X337500Y345500D01*
X321654Y346937D02*
Y347134D01*
X337500Y345500D02*
Y347941D01*
D17*
X358961Y424106D02*
D03*
X355811D02*
D03*
X334040D02*
D03*
X337189D02*
D03*
D18*
X339611D02*
D03*
X341579D02*
D03*
X343548D02*
D03*
X345516D02*
D03*
X347485D02*
D03*
X349453D02*
D03*
X351422D02*
D03*
X353390D02*
D03*
D19*
X351900Y376709D02*
D03*
Y371709D02*
D03*
Y366709D02*
D03*
Y361709D02*
D03*
Y356709D02*
D03*
Y351709D02*
D03*
Y346709D02*
D03*
Y341709D02*
D03*
X373000Y376709D02*
D03*
Y371709D02*
D03*
Y366709D02*
D03*
Y361709D02*
D03*
Y356709D02*
D03*
Y351709D02*
D03*
Y346709D02*
D03*
Y341709D02*
D03*
D20*
X298500Y374941D02*
D03*
X337500Y332941D02*
D03*
Y339059D02*
D03*
Y354059D02*
D03*
Y347941D02*
D03*
X306000Y374941D02*
D03*
Y381059D02*
D03*
X314500Y292559D02*
D03*
Y286441D02*
D03*
D21*
X298500Y381059D02*
D03*
D22*
X421500Y353000D02*
D03*
X414500D02*
D03*
X422000Y261500D02*
D03*
X415000D02*
D03*
X422500Y169000D02*
D03*
X415500D02*
D03*
X422500Y75000D02*
D03*
X415500D02*
D03*
D23*
X321654Y347134D02*
D03*
Y338866D02*
D03*
X328346D02*
D03*
Y347134D02*
D03*
D24*
X463933Y80000D02*
D03*
X464433Y168500D02*
D03*
Y261167D02*
D03*
Y352500D02*
D03*
D25*
X443067Y80000D02*
D03*
X443567Y168500D02*
D03*
Y261167D02*
D03*
Y352500D02*
D03*
D26*
X421559Y83500D02*
D03*
X415441D02*
D03*
X323941Y361000D02*
D03*
X330059D02*
D03*
X323941Y369000D02*
D03*
X330059D02*
D03*
X421559Y177000D02*
D03*
X415441D02*
D03*
X330059Y377000D02*
D03*
X323941D02*
D03*
X329941Y416000D02*
D03*
X336059D02*
D03*
X414941Y269000D02*
D03*
X421059D02*
D03*
X420559Y360500D02*
D03*
X414441D02*
D03*
D27*
X385000Y447933D02*
D03*
D28*
Y427067D02*
D03*
D49*
X345500Y384000D02*
X348000Y381500D01*
X345500Y384000D02*
Y391000D01*
X353057Y398556D01*
X348000Y381500D02*
X351750D01*
X408000Y395000D02*
X409000D01*
X389500Y376500D02*
X406000Y393000D01*
X408000Y395000D01*
X387104Y374104D02*
X389500Y376500D01*
X343500Y413500D02*
Y417500D01*
X337700Y397700D02*
X343500Y403500D01*
X337700Y373300D02*
Y397700D01*
X343500Y403500D02*
Y413500D01*
X341191Y369809D02*
X345000D01*
X337700Y373300D02*
X341191Y369809D01*
X353000Y413500D02*
Y417500D01*
X351750Y381500D02*
X355500D01*
X353000Y413500D02*
X353057Y413444D01*
Y398556D02*
Y413444D01*
X371000Y382500D02*
X381000D01*
X404500Y406000D01*
X409000D01*
X387000Y374104D02*
X387104D01*
X409000Y315000D02*
Y354000D01*
X386007Y369504D02*
X393496D01*
X409000Y354000D01*
X381000Y369500D02*
X386003D01*
X386007Y369504D01*
X400000Y229000D02*
Y349000D01*
X390000Y359000D02*
X400000Y349000D01*
Y229000D02*
X408500Y220500D01*
X385500Y359000D02*
X390000D01*
X381000D02*
X385500D01*
X381500Y349000D02*
X385500D01*
X390000Y344500D01*
Y133000D02*
Y344500D01*
Y133000D02*
X395500Y127500D01*
X409000D01*
X390500Y115500D02*
X405000D01*
X378500Y127500D02*
X390500Y115500D01*
X378500Y127500D02*
Y335345D01*
D50*
X422000Y168500D02*
X443567D01*
X421833Y261167D02*
X443567D01*
X314500Y292559D02*
X314633Y292692D01*
X361000Y306000D02*
X365655Y310655D01*
X312500Y306000D02*
X361000D01*
X312000Y314000D02*
X313000D01*
X338500D02*
X359855Y335355D01*
X316500Y314000D02*
X338500D01*
X313000D02*
X316500D01*
X365655Y310655D02*
Y373815D01*
X365500Y373970D02*
X365655Y373815D01*
X365500Y373970D02*
Y375000D01*
X363000Y377500D02*
X365500Y375000D01*
X359500Y377500D02*
X363000D01*
X359000Y371000D02*
X359855Y370145D01*
Y335355D02*
Y370145D01*
X415441Y83500D02*
Y106598D01*
X416000Y107158D01*
X415471Y75029D02*
X415500Y75000D01*
X415471Y75029D02*
Y83470D01*
X415441Y83500D02*
X415471Y83470D01*
X415441Y177000D02*
Y199562D01*
X416000Y200121D01*
X415471Y169029D02*
X415500Y169000D01*
X415471Y169029D02*
Y176971D01*
X415441Y177000D02*
X415471Y176971D01*
X414941Y269000D02*
Y292026D01*
X416000Y293085D01*
X414970Y261529D02*
X415000Y261500D01*
X414970Y261529D02*
Y268970D01*
X414941Y269000D02*
X414970Y268970D01*
X414441Y384490D02*
X416000Y386049D01*
X414441Y360500D02*
Y384490D01*
X414500Y353000D02*
Y359941D01*
X422000Y352500D02*
X443567D01*
D51*
X405010Y400878D02*
X412328D01*
X380261Y373159D02*
X405880Y398778D01*
X379391Y375259D02*
X405010Y400878D01*
X377066Y373159D02*
X380261D01*
X377066Y375259D02*
X379391D01*
X405880Y398778D02*
X412328D01*
X376187Y376138D02*
Y376197D01*
X375674Y371709D02*
X376187Y372222D01*
X373000Y376709D02*
X375674D01*
X376187Y372281D02*
X377066Y373159D01*
X376187Y376138D02*
X377066Y375259D01*
X376187Y372222D02*
Y372281D01*
X373000Y371709D02*
X375674D01*
Y376709D02*
X376187Y376197D01*
X405500Y313500D02*
X411085Y307915D01*
X391779Y365259D02*
X405500Y351538D01*
Y313500D02*
Y351538D01*
X390909Y363159D02*
X403400Y350669D01*
Y312630D02*
Y350669D01*
Y312630D02*
X410216Y305815D01*
X376187Y362222D02*
Y362281D01*
X415215Y302928D02*
X416000D01*
X375674Y366709D02*
X376187Y366197D01*
X412328Y307915D02*
X415215Y310802D01*
X412328Y305815D02*
X415215Y302928D01*
X375674Y361709D02*
X376187Y362222D01*
X373000Y366709D02*
X375674D01*
X411085Y307915D02*
X412328D01*
X410216Y305815D02*
X412328D01*
X377066Y363159D02*
X390909D01*
X373000Y361709D02*
X375674D01*
X376187Y366138D02*
X377066Y365259D01*
X376187Y362281D02*
X377066Y363159D01*
X376187Y366138D02*
Y366197D01*
X377066Y365259D02*
X391779D01*
X415215Y310802D02*
X416000D01*
X377066Y355259D02*
X388211D01*
X396100Y224870D02*
Y347370D01*
X388211Y355259D02*
X396100Y347370D01*
X394000Y224000D02*
Y346500D01*
X387341Y353159D02*
X394000Y346500D01*
X377066Y353159D02*
X387341D01*
X394000Y224000D02*
X405149Y212851D01*
X396100Y224870D02*
X406019Y214951D01*
X405149Y212851D02*
X412328D01*
X406019Y214951D02*
X412328D01*
X380839Y343159D02*
X383500Y340498D01*
X381709Y345259D02*
X385600Y341368D01*
X377066Y345259D02*
X381709D01*
X377066Y343159D02*
X380839D01*
X383500Y129500D02*
Y340498D01*
X385600Y130370D02*
X393983Y121987D01*
X383500Y129500D02*
X393113Y119887D01*
X385600Y130370D02*
Y341368D01*
X393983Y121987D02*
X412328D01*
X393113Y119887D02*
X412328D01*
X415215Y117000D02*
X416000D01*
X412328Y119887D02*
X415215Y117000D01*
Y124874D02*
X416000D01*
X412328Y121987D02*
X415215Y124874D01*
X375674Y341709D02*
X376187Y342222D01*
X373000Y346709D02*
X375674D01*
X373000Y341709D02*
X375674D01*
X376187Y342281D02*
X377066Y343159D01*
X375674Y346709D02*
X376187Y346197D01*
Y346138D02*
Y346197D01*
Y346138D02*
X377066Y345259D01*
X376187Y342222D02*
Y342281D01*
Y352281D02*
X377066Y353159D01*
X376187Y352222D02*
Y352281D01*
X375674Y351709D02*
X376187Y352222D01*
X373000Y351709D02*
X375674D01*
X415215Y209964D02*
X416000D01*
X412328Y212851D02*
X415215Y209964D01*
Y217838D02*
X416000D01*
X412328Y214951D02*
X415215Y217838D01*
X376187Y356138D02*
Y356197D01*
Y356138D02*
X377066Y355259D01*
X375674Y356709D02*
X376187Y356197D01*
X373000Y356709D02*
X375674D01*
X412328Y398778D02*
X415215Y395891D01*
Y403765D02*
X416000D01*
X412328Y400878D02*
X415215Y403765D01*
Y395891D02*
X416000D01*
D52*
X426669Y146803D02*
D03*
Y95071D02*
D03*
Y239767D02*
D03*
Y188035D02*
D03*
Y332731D02*
D03*
Y280998D02*
D03*
Y425695D02*
D03*
Y373962D02*
D03*
D53*
X416000Y107158D02*
D03*
Y200121D02*
D03*
Y293085D02*
D03*
Y386049D02*
D03*
D54*
Y117000D02*
D03*
X416000Y134716D02*
D03*
X416000Y124874D02*
D03*
Y209964D02*
D03*
X416000Y227680D02*
D03*
X416000Y217838D02*
D03*
Y302928D02*
D03*
X416000Y320644D02*
D03*
X416000Y310802D02*
D03*
Y395891D02*
D03*
X416000Y413608D02*
D03*
X416000Y403765D02*
D03*
D55*
X329492Y444893D02*
D03*
X363508D02*
D03*
D56*
X329492Y428437D02*
D03*
X363508Y428437D02*
D03*
D57*
X304874Y324052D02*
D03*
Y313989D02*
D03*
Y306115D02*
D03*
Y296052D02*
D03*
D58*
X297000Y333228D02*
D03*
Y286772D02*
D03*
D59*
Y318858D02*
D03*
Y301142D02*
D03*
D60*
X466000Y102500D02*
D03*
X461000D02*
D03*
X466000Y98000D02*
D03*
X461000D02*
D03*
X465500Y194500D02*
D03*
X461000D02*
D03*
X465500Y190000D02*
D03*
X461000D02*
D03*
X465500Y280000D02*
D03*
X461000Y279500D02*
D03*
X465500Y275000D02*
D03*
X461000D02*
D03*
X465500Y373500D02*
D03*
X461500D02*
D03*
X465500Y369500D02*
D03*
X461500D02*
D03*
X417500Y445500D02*
D03*
D03*
X411500D02*
D03*
X418000Y450500D02*
D03*
X411500D02*
D03*
X324500Y416000D02*
D03*
X316500Y306000D02*
D03*
X312500D02*
D03*
X316500Y314000D02*
D03*
X313000D02*
D03*
X409000Y395000D02*
D03*
X406000Y393000D02*
D03*
X314500Y282000D02*
D03*
X321654Y338866D02*
D03*
X328346Y347134D02*
D03*
X319608Y361000D02*
D03*
X344895Y362605D02*
D03*
X311750Y392000D02*
D03*
X359500Y367500D02*
D03*
X359000Y371000D02*
D03*
X363000Y377500D02*
D03*
X359500D02*
D03*
X341191Y369809D02*
D03*
X345000D02*
D03*
X343500Y413500D02*
D03*
Y417500D02*
D03*
X351750Y381500D02*
D03*
X355500D02*
D03*
X353000Y413500D02*
D03*
Y417500D02*
D03*
X404500Y406000D02*
D03*
X409000D02*
D03*
X374500Y382500D02*
D03*
X371000D02*
D03*
X405000Y223500D02*
D03*
X389500Y376500D02*
D03*
X387000Y374104D02*
D03*
X409000Y318500D02*
D03*
Y315000D02*
D03*
X386007Y369504D02*
D03*
X381000Y369500D02*
D03*
X385500Y359000D02*
D03*
X381000D02*
D03*
X408500Y220500D02*
D03*
X378500Y331500D02*
D03*
Y335345D02*
D03*
X384500Y349000D02*
D03*
X381500D02*
D03*
X406500Y127500D02*
D03*
X409000D02*
D03*
X405000Y115500D02*
D03*
X402500D02*
D03*
X331500Y332500D02*
D03*
X327530D02*
D03*
X323500D02*
D03*
X319500D02*
D03*
X316250Y334250D02*
D03*
X314500Y338500D02*
D03*
Y343250D02*
D03*
Y348000D02*
D03*
X316280Y352279D02*
D03*
X319500Y354000D02*
D03*
X324000D02*
D03*
X327780Y354059D02*
D03*
X331500Y354000D02*
D03*
D61*
X343524Y429976D02*
D03*
X347524D02*
D03*
M02*
