G04*
G04 #@! TF.GenerationSoftware,Altium Limited,Altium Designer,20.0.13 (296)*
G04*
G04 Layer_Color=16711935*
%FSLAX25Y25*%
%MOIN*%
G70*
G01*
G75*
%ADD41O,0.18517X0.12611*%
%ADD42R,0.07887X0.07887*%
%ADD43C,0.07887*%
%ADD44O,0.05124X0.08274*%
%ADD45O,0.05124X0.10243*%
%ADD46O,0.09461X0.07099*%
%ADD47O,0.15800X0.06800*%
%ADD48C,0.05131*%
D41*
X426669Y146803D02*
D03*
Y95071D02*
D03*
Y239767D02*
D03*
Y188035D02*
D03*
Y332731D02*
D03*
Y280998D02*
D03*
Y425695D02*
D03*
Y373962D02*
D03*
D42*
X416000Y107158D02*
D03*
Y200121D02*
D03*
Y293085D02*
D03*
Y386049D02*
D03*
D43*
Y117000D02*
D03*
X416000Y134716D02*
D03*
X416000Y124874D02*
D03*
Y209964D02*
D03*
X416000Y227680D02*
D03*
X416000Y217838D02*
D03*
Y302928D02*
D03*
X416000Y320644D02*
D03*
X416000Y310802D02*
D03*
Y395891D02*
D03*
X416000Y413608D02*
D03*
X416000Y403765D02*
D03*
D44*
X329492Y444893D02*
D03*
X363508D02*
D03*
D45*
X329492Y428437D02*
D03*
X363508Y428437D02*
D03*
D46*
X304874Y324052D02*
D03*
Y313989D02*
D03*
Y306115D02*
D03*
Y296052D02*
D03*
D47*
X297000Y333228D02*
D03*
Y286772D02*
D03*
D48*
Y318858D02*
D03*
Y301142D02*
D03*
M02*
