G04*
G04 #@! TF.GenerationSoftware,Altium Limited,Altium Designer,20.0.13 (296)*
G04*
G04 Layer_Color=32768*
%FSLAX25Y25*%
%MOIN*%
G70*
G01*
G75*
%ADD12C,0.00100*%
%ADD64C,0.00197*%
%ADD65C,0.00158*%
%ADD66C,0.00200*%
G36*
X329984Y443319D02*
X329000D01*
Y446468D01*
X329984D01*
Y443319D01*
D02*
G37*
G36*
Y426272D02*
X329000D01*
Y430602D01*
X329984D01*
Y426272D01*
D02*
G37*
G36*
X345811Y422630D02*
X345221D01*
Y425583D01*
X345811D01*
Y422630D01*
D02*
G37*
G36*
X343843D02*
X343253D01*
Y425583D01*
X343843D01*
Y422630D01*
D02*
G37*
G36*
X341874D02*
X341284D01*
Y425583D01*
X341874D01*
Y422630D01*
D02*
G37*
G36*
X339906D02*
X339316D01*
Y425583D01*
X339906D01*
Y422630D01*
D02*
G37*
G36*
X337780D02*
X336598D01*
Y425583D01*
X337780D01*
Y422630D01*
D02*
G37*
G36*
X334631D02*
X333449D01*
Y425583D01*
X334631D01*
Y422630D01*
D02*
G37*
G36*
X364000Y443319D02*
X363016D01*
Y446468D01*
X364000D01*
Y443319D01*
D02*
G37*
G36*
Y426272D02*
X363016D01*
Y430603D01*
X364000D01*
Y426272D01*
D02*
G37*
G36*
X359552Y422630D02*
X358370D01*
Y425583D01*
X359552D01*
Y422630D01*
D02*
G37*
G36*
X356402D02*
X355220D01*
Y425583D01*
X356402D01*
Y422630D01*
D02*
G37*
G36*
X353685D02*
X353095D01*
Y425583D01*
X353685D01*
Y422630D01*
D02*
G37*
G36*
X351717D02*
X351127D01*
Y425583D01*
X351717D01*
Y422630D01*
D02*
G37*
G36*
X349748D02*
X349158D01*
Y425583D01*
X349748D01*
Y422630D01*
D02*
G37*
G36*
X347780D02*
X347190D01*
Y425583D01*
X347780D01*
Y422630D01*
D02*
G37*
G36*
X364335Y422728D02*
Y422630D01*
Y422532D01*
X364196Y422394D01*
X364001D01*
X363862Y422532D01*
Y422630D01*
Y422728D01*
X364001Y422866D01*
X364196D01*
X364335Y422728D01*
D02*
G37*
D12*
X299001Y378000D02*
G03*
X299001Y378000I-500J0D01*
G01*
X338000Y336000D02*
G03*
X338000Y336000I-500J0D01*
G01*
X419000Y83500D02*
G03*
X419000Y83500I-500J0D01*
G01*
X338000Y351000D02*
G03*
X338000Y351000I-500J0D01*
G01*
X327500Y361000D02*
G03*
X327500Y361000I-500J0D01*
G01*
Y369000D02*
G03*
X327500Y369000I-500J0D01*
G01*
X419000Y177000D02*
G03*
X419000Y177000I-500J0D01*
G01*
X306500Y378000D02*
G03*
X306500Y378000I-500J0D01*
G01*
X315000Y289500D02*
G03*
X315000Y289500I-500J0D01*
G01*
X327500Y377000D02*
G03*
X327500Y377000I-500J0D01*
G01*
X333500Y416000D02*
G03*
X333500Y416000I-500J0D01*
G01*
X418500Y269000D02*
G03*
X418500Y269000I-500J0D01*
G01*
X418000Y360500D02*
G03*
X418000Y360500I-500J0D01*
G01*
X297713Y378000D02*
X299288D01*
X298500Y377212D02*
Y378787D01*
X336713Y336000D02*
X338287D01*
X337500Y335213D02*
Y336787D01*
X418500Y82713D02*
Y84287D01*
X417713Y83500D02*
X419287D01*
X336713Y351000D02*
X338287D01*
X337500Y350213D02*
Y351787D01*
X327000Y360213D02*
Y361787D01*
X326213Y361000D02*
X327787D01*
X327000Y368213D02*
Y369787D01*
X326213Y369000D02*
X327787D01*
X418500Y176213D02*
Y177787D01*
X417713Y177000D02*
X419287D01*
X305213Y378000D02*
X306787D01*
X306000Y377213D02*
Y378787D01*
X313713Y289500D02*
X315287D01*
X314500Y288713D02*
Y290287D01*
X327000Y376213D02*
Y377787D01*
X326213Y377000D02*
X327787D01*
X333000Y415213D02*
Y416787D01*
X332213Y416000D02*
X333787D01*
X418000Y268213D02*
Y269787D01*
X417213Y269000D02*
X418787D01*
X417500Y359713D02*
Y361287D01*
X416713Y360500D02*
X418287D01*
D64*
X417378Y120937D02*
G03*
X417378Y120937I-1378J0D01*
G01*
Y213901D02*
G03*
X417378Y213901I-1378J0D01*
G01*
Y306865D02*
G03*
X417378Y306865I-1378J0D01*
G01*
Y399828D02*
G03*
X417378Y399828I-1378J0D01*
G01*
X298378Y310000D02*
G03*
X298378Y310000I-1378J0D01*
G01*
X454878Y80000D02*
G03*
X454878Y80000I-1378J0D01*
G01*
X455378Y168500D02*
G03*
X455378Y168500I-1378J0D01*
G01*
X386378Y437500D02*
G03*
X386378Y437500I-1378J0D01*
G01*
X455378Y261167D02*
G03*
X455378Y261167I-1378J0D01*
G01*
Y352500D02*
G03*
X455378Y352500I-1378J0D01*
G01*
X414032Y120937D02*
X417969D01*
X416000Y118968D02*
Y122906D01*
X414032Y213901D02*
X417969D01*
X416000Y211932D02*
Y215869D01*
X414032Y306865D02*
X417969D01*
X416000Y304896D02*
Y308833D01*
X414032Y399828D02*
X417969D01*
X416000Y397860D02*
Y401797D01*
X297000Y308032D02*
Y311968D01*
X295031Y310000D02*
X298969D01*
X453500Y78031D02*
Y81968D01*
X451532Y80000D02*
X455469D01*
X454000Y166532D02*
Y170468D01*
X452032Y168500D02*
X455969D01*
X383032Y437500D02*
X386968D01*
X385000Y435532D02*
Y439468D01*
X454000Y259198D02*
Y263135D01*
X452032Y261167D02*
X455969D01*
X454000Y350532D02*
Y354468D01*
X452032Y352500D02*
X455969D01*
D65*
X325707Y343000D02*
G03*
X325707Y343000I-707J0D01*
G01*
X324000D02*
X326000D01*
X325000Y342000D02*
Y344000D01*
D66*
X364098Y424106D02*
Y452768D01*
X328902Y424106D02*
X364098D01*
X328902D02*
Y452768D01*
X364098D01*
X418000Y352500D02*
Y353000D01*
Y353500D01*
X417500Y353000D02*
X418500D01*
Y261000D02*
Y261500D01*
Y262000D01*
X418000Y261500D02*
X419000D01*
Y168500D02*
Y169000D01*
Y169500D01*
X418500Y169000D02*
X419500D01*
X419000Y74500D02*
Y75000D01*
Y75500D01*
X418500Y75000D02*
X419500D01*
M02*
